<?xml version="1.0" encoding="utf-8"?>
<!-- Generator: Adobe Illustrator 23.0.1, SVG Export Plug-In . SVG Version: 6.00 Build 0)  -->
<svg version="1.1" id="Layer_1" xmlns="http://www.w3.org/2000/svg" xmlns:xlink="http://www.w3.org/1999/xlink" x="0px" y="0px"
	 viewBox="0 0 192 108" style="enable-background:new 0 0 192 108;" xml:space="preserve">
<style type="text/css">
	.st0{fill:#FFFFFF;}
</style>
<g>
	<path class="st0" d="M265.6,49.6c-0.1,0.1-0.3,0.1-0.4,0.2c-0.2-1.6-0.5-1.8-2-1.8c-1.3,0-2.5,0-3.9,0c0,0.3,0,0.7,0,1
		c0,3.7,0,7.3,0,11c0,2,0,2,1.8,2.8c-1.8,0-3.6,0-5.4,0c0-0.1,0-0.2,0.1-0.2c1.7-0.4,1.7-0.5,1.7-2.3c0-3.8,0-7.5,0-11.2
		c0-0.3,0-0.6,0-1c-1.7,0-3.3-0.1-4.9,0c-0.3,0-0.7,0.6-0.9,1c-0.1,0.2-0.1,0.4-0.3,0.7c-0.3-1-0.2-2-0.2-3
		c4.2,0.5,8.4,0.3,12.6,0.2c0.7,0,1.3-0.1,2-0.2C265.6,47.7,265.6,48.7,265.6,49.6z"/>
	<path class="st0" d="M-4.9,45.2c0.1-0.6,0.2-1.1,0.3-1.7c0.1,0,0.1,0,0.2,0c0,0.5,0.1,1,0.1,1.5c0.1,0.5,0.1,1.2,0.8,1.2
		c0.7,0,0.8-0.6,0.9-1.1c0.3-1.6,0.4-3.1,0.7-4.9c0.1,0.3,0.2,0.4,0.2,0.6c0.1,1.7,0.2,3.4,0.4,5.1c0.1,0.6,0.3,1.1,0.4,1.7
		c0,0.1,0.2,0.2,0.3,0.2s0.2-0.1,0.3-0.3c0.1-0.2,0.1-0.5,0.1-0.7c0.3-2.8,0.6-5.6,0.9-8.4c0-0.1,0-0.1,0.1-0.3
		C0.9,39.5,1,40.8,1.1,42c0.1,0.8,0,1.7,0,2.5c0,0.2,0,0.4,0.1,0.5c0.6,0.4,0.4,1,0.4,1.6c0,1.2,0.1,2.5,0.1,3.7
		c0,0.1,0.1,0.2,0.3,0.4c0.5-2,0.1-3.9,0.7-5.7c0.1,1,0.2,1.9,0.3,2.9C3,50.3,3.1,52.6,3.1,55c0.1,4.5-3.5,8-8.3,8.2
		c-2.6,0.1-5-0.5-7-2.4c-1.7-1.6-2.5-3.5-2.5-5.8c0-1.5,0.2-3.1,0.3-4.6c0.1-1.5,0.3-3,0.6-4.6c0.1,1.1,0.3,2.3,0.4,3.4
		c0.1,0,0.2,0,0.3,0c0.2-1.4,0.4-2.7,0.6-4.1c0.1,0,0.1,0,0.2,0c0.1,0.8,0.1,1.6,0.2,2.4c0.1,0,0.2,0,0.3,0c0-2.2,0-4.5,0-6.7
		c0.1,0,0.2,0,0.2,0c0.2,1.9,0.4,3.8,0.6,5.8c0,0,0.1,0,0.1,0c0.2-1.5,0.5-3,0.7-4.5c0.1,0,0.2,0,0.3,0c0,1.5,0,2.9,0,4.4
		c0.1,0,0.2,0,0.2,0c0.7-1.1,0.9-2.4,1-3.7c0.3-3.1,0.5-6.2,0.8-9.3c0.1,0,0.2,0,0.3,0c0.2,3.3,0.4,6.6,0.6,10.1
		c0.1-0.2,0.2-0.3,0.3-0.5c0,0.8,0,1.5,0,2.3c0.1,0,0.2,0,0.3,0.1c0.2-1.3,0.5-2.6,0.7-3.9c0,0,0.1,0,0.1,0c0.1,1.2,0.3,2.4,0.4,3.6
		C-5,45.2-5,45.2-4.9,45.2z M1,55c-0.1-0.6-0.1-1.2-0.2-1.8c-0.6-2.6-2-4.5-4.6-5.2c-2.5-0.7-4.8-0.2-6.7,1.7c-1.7,1.8-2.3,4-2,6.4
		c0.5,4.2,4,6.9,8,6.2C-1.2,61.6,1,58.7,1,55z"/>
	<path class="st0" d="M97.3,44.1c0.1,1.1,0.3,2.2,0.4,3.3c0.5,4.3,1,8.6,1.6,12.9c0.2,1.6,0.5,1.9,2.1,2.1c0.1,0,0.2,0.1,0.3,0.1
		c-0.5,0.4-5.2,0.4-5.8,0c0.1-0.1,0.1-0.1,0.2-0.1c1.1-0.3,1.3-0.5,1.1-1.6c-0.3-3.1-0.5-6.2-0.8-9.3c-0.1-0.9-0.2-1.8-0.4-2.7
		c-2.1,4.7-4.2,9.5-6.4,14.4c-2.2-4.7-4.3-9.4-6.5-14c-0.1,0-0.1,0-0.2,0c-0.1,1.1-0.2,2.2-0.3,3.4c-0.2,2.7-0.5,5.5-0.7,8.2
		c-0.1,1.1,0,1.3,1.2,1.5c0.1,0,0.1,0.1,0.3,0.3c-1.8,0-3.5,0-5.3,0c0.1-0.1,0.1-0.2,0.1-0.2c1.8-0.1,2.2-1.2,2.4-2.8
		c0.5-5,1.1-9.9,1.7-14.9c0-0.2,0.1-0.5,0.1-0.7c0.1,0,0.2-0.1,0.3-0.1c2.4,5.2,4.8,10.3,7.3,15.6c2.4-5.3,4.7-10.5,7.1-15.6
		C97.1,44.1,97.2,44.1,97.3,44.1z"/>
	<path class="st0" d="M60.6,59.3c0-0.7,0-1.1,0-1.6c0-2.6,0-5.2,0-7.8c0-2.1,0-2.1-1.8-2.6c0.4-0.3,4.3-0.4,5.1,0
		c-0.1,0.1-0.2,0.2-0.3,0.2c-1.5,0.3-1.6,0.5-1.6,1.9c0,3.9,0,7.8,0,11.7c0,0.7,0.1,1.4,0.2,2c-0.1,0.1-0.1,0.1-0.2,0.2
		c-4.5-4.2-9-8.5-13.6-12.9c0,0.9,0,1.5,0,2.2c0,2.6,0,5.2,0,7.8c0,1.5,0.2,1.7,1.7,2c0.1,0,0.2,0.1,0.4,0.3c-1.9,0-3.6,0-5.5,0
		c0.3-0.2,0.3-0.3,0.4-0.3c1.5-0.3,1.6-0.4,1.6-1.9c0-3.7,0-7.3,0-11c0-0.9-0.1-1.8,0-2.9C51.5,50.8,55.9,55,60.6,59.3z"/>
	<path class="st0" d="M156.3,50.5c0,3.6,0,7,0,10.4c0,1,0.4,1.4,1.4,1.6c0.2,0,0.3,0.1,0.4,0.3c-1.7,0-3.3,0-5,0
		c0-0.1,0.1-0.2,0.1-0.2c1.8-0.6,1.8-0.6,1.8-2.6c0-3.5,0-7,0-10.6c0-0.9-0.1-1.8-0.2-2.7c0.1-0.1,0.1-0.1,0.2-0.2
		c4.5,4.2,8.9,8.4,13.5,12.7c0-0.5,0-0.8,0-1c0-2.8,0-5.6,0-8.4c0-2,0-2-1.8-2.5c0.4-0.4,4.2-0.4,5.1-0.1c-0.2,0.1-0.3,0.2-0.4,0.2
		c-1.3,0.2-1.6,0.5-1.6,1.8c0,4.3,0.1,8.6,0.1,12.9c0,0.3,0,0.7,0.1,1c-0.1,0-0.1,0.1-0.2,0.1C165.4,59.1,160.9,54.9,156.3,50.5z"/>
	<path class="st0" d="M242.5,54.5c0-1.9,0-3.8,0-5.7c0-0.8-0.4-1.1-1.7-1.5c0.4-0.4,4.7-0.4,5.4-0.1c0,0,0,0.1,0,0.1
		c-1.8,0.7-1.8,0.7-1.8,2.6c0,3.3,0,6.6,0,9.8c0,2.1,0,2.1,1.8,2.9c-1.8,0-3.6,0-5.6,0c0.2-0.2,0.3-0.3,0.3-0.3
		c1.3-0.3,1.6-0.6,1.6-1.9c0-1.6,0-3.2,0-4.9c-3.2,0-6.3,0-9.4,0c0,1.9,0,3.8,0,5.6c0,0.7,0.5,1,1.1,1.2c0.2,0.1,0.4,0.1,0.7,0.1
		c0,0.1,0,0.1,0,0.2c-1.8,0-3.6,0-5.4,0c0-0.1,0.1-0.2,0.1-0.2c1.6-0.4,1.7-0.5,1.7-2.3c0-3.6,0-7.2,0-10.8c0-1.5-0.2-1.6-1.6-2
		c-0.1,0-0.1-0.1-0.3-0.3c1.9,0,3.7,0,5.5,0c0.1,0.1,0.1,0.2,0.2,0.2c-2.3,0.1-2,1.6-2,3c0,1.4,0,2.7,0,4.2
		C236.1,54.5,239.3,54.5,242.5,54.5z"/>
	<path class="st0" d="M-29.7,54.9c0.8,0,1.6-0.1,2.4-0.1c1.9-0.1,3-1.3,3-3.2c0-2-1-3.3-2.9-3.4c-1.1-0.1-2.2,0-3.4,0
		c0,0.3,0,0.6,0,0.8c0,3.8,0,7.6,0,11.5c0,1.5,0.2,1.7,1.7,2c0.1,0,0.1,0.1,0.3,0.3c-2,0-3.8,0-5.7,0c0.2-0.2,0.3-0.3,0.3-0.3
		c1.4-0.3,1.6-0.5,1.6-1.9c0-3.7,0-7.4,0-11.1c0-1.5-0.2-1.7-1.6-2c-0.1,0-0.1-0.1-0.3-0.3c0.4-0.1,0.6-0.1,0.8-0.1
		c2.1,0,4.2,0,6.3,0c0.6,0,1.1,0.1,1.7,0.2c2.1,0.5,3.3,1.9,3.4,3.8c0.1,1.9-1.1,3.7-3,4.4c-0.2,0.1-0.4,0.2-0.6,0.2
		c1.2,1.5,2.4,3,3.6,4.4c1,1.1,1.9,2.3,3.6,2.4c0,0.1,0,0.1-0.1,0.2c-0.1,0.1-0.2,0.2-0.3,0.2c-2,0.1-3.8-0.3-5.2-2
		C-25,60-25.7,59-26.4,58c-0.9-1.2-1.7-2.5-3.4-2.8C-29.7,55.1-29.7,55-29.7,54.9z"/>
	<path class="st0" d="M221.6,52.1c-0.1-0.1-0.2-0.3-0.3-0.4c-0.8-2.8-2.9-3.9-5.6-4c-4.5-0.2-7.5,2.8-7.2,7.5c0.1,1,0.2,2.1,0.6,3.1
		c1.1,3.2,4.3,4.7,8,3.8c0.5-0.1,1-0.3,1.4-0.4c1.6-0.6,2.7-1.5,2.3-3.5c0-0.2,0-0.4,0-0.6c0-1.5,0-1.5-1.5-1.9c0,0-0.1-0.1-0.2-0.3
		c1.7,0,3.3,0,5,0c-0.1,0.1-0.1,0.2-0.1,0.2c-1.4,0.4-1.4,0.4-1.4,1.9c0,0.2,0,0.4,0,0.7c0.3,1.4-0.4,2.3-1.5,3.1
		c-3.3,2.3-6.9,2.6-10.6,0.9c-2.9-1.4-4.5-4.6-4.1-8.1c0.5-4.5,3.4-7.2,8-7.4c2.1-0.1,4.1,0.2,6,1.2c0.5,0.3,0.8,0.5,0.9,1.2
		c0.1,1,0.3,2,0.4,3C221.8,52.1,221.7,52.1,221.6,52.1z"/>
	<path class="st0" d="M22.9,59.1c-0.4,1.2-0.9,2.4-1.4,3.6c0,0.1-0.3,0.2-0.5,0.2c-4,0-8,0-12,0c-0.1,0-0.1-0.1-0.4-0.2
		c3.2-4.9,6.4-9.7,9.7-14.7c-0.8,0-1.5,0-2.2,0c-1.7,0-3.3,0-5,0c-1.2,0-1.4,0.2-1.6,1.4c0,0.1-0.1,0.2-0.3,0.3c0-1,0-2,0-3
		c3.9,0.5,7.8,0.4,12,0.1c-3.3,5.1-6.6,10-10,15.1c1.1,0,2.2,0,3.1,0c1.2,0,2.5,0,3.7,0c1.8,0,3.2-0.7,4-2.4
		c0.1-0.2,0.2-0.4,0.4-0.6C22.7,59,22.8,59.1,22.9,59.1z"/>
	<path class="st0" d="M-51.4,44.7c3.6-0.5,7.2,0.2,10.8-0.7c0,1,0,2,0,3.1c-0.1,0-0.2,0-0.2-0.1c-0.5-1.6-0.5-1.6-2.2-1.6
		c-1.5,0-2.9,0-4.4,0c0,2.6,0,5.2,0,7.8c1.5,0,3,0.1,4.5,0c0.3,0,0.6-0.6,0.9-0.9c0.1-0.2,0.1-0.4,0.1-0.7c0.1,0,0.1,0,0.2,0
		c0,1.4,0,2.8,0,4.3c-0.1-0.1-0.2-0.1-0.3-0.2c-0.4-1.4-0.5-1.5-2-1.5c-1.1,0-2.3,0-3.6,0c0,0.3,0,0.6,0,0.8c0,1.6,0,3.2,0,4.9
		c0,1.9,0.2,2.2,1.9,2.6c-0.4,0.4-5.1,0.4-6-0.1c2.4,0,2.2-1.6,2.2-3.1c0-4.2,0-8.3,0-12.5c0-1.5-0.2-1.8-1.7-2.1
		C-51.3,44.9-51.4,44.8-51.4,44.7z"/>
	<path class="st0" d="M31.7,48c0,2.2,0,4.3,0,6.5c1.5,0,3,0,4.5,0c0.3,0,0.5-0.4,0.8-0.7c0.1-0.2,0.1-0.4,0.2-0.7
		c0.4,0.7,0.4,3.4,0,3.9c-0.1-0.3-0.1-0.5-0.2-0.7c-0.2-0.3-0.5-0.7-0.9-0.7c-1.4-0.1-2.9,0-4.4,0c0,2.2,0,4.2,0,6.5
		c1.9-0.1,3.9,0.3,5.8-0.3c1-0.3,1.5-1.1,2-2c0.1-0.2,0.3-0.4,0.4-0.7c0.1,0,0.2,0.1,0.3,0.1c-0.5,1.2-0.9,2.4-1.4,3.6
		c0,0.1-0.3,0.2-0.5,0.2c-3.3,0-6.6,0-9.8,0c-0.1,0-0.3-0.1-0.5-0.1c0.2-0.1,0.3-0.2,0.3-0.3c1.4-0.3,1.6-0.5,1.6-1.9
		c0-3.6,0-7.2,0-10.7c0-2,0-2-1.8-2.5c0,0,0-0.1,0-0.1c0,0,0-0.1,0-0.1c0.1,0,0.1-0.1,0.2-0.1c3.4-0.1,6.9-0.1,10.3-0.1
		c0,0.8,0,1.8,0,2.9c-0.2-0.1-0.3-0.1-0.3-0.1c-0.3-1.5-0.5-1.7-2.1-1.7C34.8,48,33.3,48,31.7,48z"/>
	<path class="st0" d="M144.4,61.7c-0.8,0.3-1.5,0.8-2.3,1c-0.9,0.2-1.1,0.8-1.1,1.6c0,0.2,0,0.3-0.1,0.5c-0.1-0.2-0.1-0.4-0.2-0.6
		c-0.1-0.3-0.3-0.9-0.4-1c-0.5,0-1.1,0.1-1.7,0.3c-0.2,0.1-0.3,0.4-0.3,0.7c-0.1,1.6-0.2,3.2-0.3,4.8c0,0.2,0,0.4-0.3,0.7
		c-0.1-1.6-0.2-3.2-0.2-4.8c0-0.7,0-1.5-0.8-1.8c-0.7-0.3-1-0.1-1.1,0.5c-0.1,0.2-0.2,0.4-0.4,0.7c0-0.2,0-0.3,0-0.5
		c0-0.8-0.3-1.3-1.1-1.8c-1.1-0.7-2.1-1.7-2.8-2.7c-0.6-0.9-1.2-1.4-2.4-1.2c0-0.1,0-0.1,0-0.2c0.2-0.1,0.5-0.2,0.7-0.3
		c0.2-0.2,0.5-0.4,0.5-0.6c0-0.2-0.3-0.4-0.5-0.7c0.6-0.2,0.3-0.7,0.3-1.2c0-2.4,0.9-4.5,2.7-6.1c1.9-1.7,4.2-2.3,6.7-2.2
		c-2.7,0.4-4.8,1.8-6.2,4.2c-1.4,2.4-1.3,4.9-0.3,7.5c1.4,3.5,7.3,5.5,11.4,3.1C144.3,61.6,144.3,61.7,144.4,61.7z"/>
	<path class="st0" d="M116.9,67.7c-0.1-0.9-0.2-1.8-0.3-2.7c-0.1-0.5-0.1-0.9-0.2-1.4c-0.1-0.2-0.3-0.3-0.5-0.4
		c-0.1,0.2-0.3,0.3-0.3,0.5c-0.1,0.3-0.1,0.6-0.3,1c0-0.1-0.1-0.3-0.1-0.4c0-0.7-0.4-1.1-1.1-1.1c-2.1-0.2-3.9-1.1-5.4-2.6
		c-0.1-0.1-0.2-0.2-0.3-0.3c0,0,0-0.1-0.1-0.3c0.4,0.3,0.7,0.6,1,0.8c2.8,2.3,7.3,1.9,9.7,0.5c3.2-2,4.2-6.9,2.1-10.4
		c-0.4-0.7-0.8-1.3-1.4-1.8c-1.3-1.3-2.7-2.2-4.8-2c2.9-1.1,7.2,1.5,8.9,5.2c0.2,0,0.4-0.1,0.4-0.1c-0.1,0.5-0.1,1.1-0.2,1.9
		c0.9-0.3,1.5-0.6,2.4-0.9c-0.7,0.7-1.3,1.2-1.8,1.8c-0.2,0.2-0.3,0.6-0.3,0.9c-0.3,2.6-1.5,4.6-3.7,6c-1,0.7-1.8,1.4-1.8,2.7
		c0,0.1-0.1,0.2-0.2,0.3c-0.2-0.6-0.3-1.1-0.4-1.6c-1,0.3-1.4,1-1.1,2.3c0,0.2,0.1,0.5,0.1,0.7c0,0.5,0,1,0,1.5
		C117,67.7,117,67.7,116.9,67.7z"/>
	<path class="st0" d="M177.3,62.7c0-0.1,0-0.2,0.1-0.2c1.8-0.6,1.8-0.6,1.8-2.6c0-3.5,0-7,0-10.6c0-1.4-0.2-1.6-1.6-1.9
		c-0.1,0-0.2-0.1-0.2-0.3c1.8,0,3.7,0,5.5,0c0,0.1-0.1,0.2-0.1,0.2c-1.7,0.4-1.8,0.6-1.8,2.4c0,3.7,0,7.4,0,11.1c0,0.3,0,0.6,0,1.1
		c1.8-0.1,3.6-0.1,5.3-0.3c1.2-0.1,1.9-1.1,2.5-2.1c0.1-0.2,0.3-0.4,0.5-0.7c0.1,0,0.2,0.1,0.2,0.1c-0.4,1.2-0.9,2.3-1.4,3.5
		c-0.1,0.2-0.4,0.3-0.6,0.3c-3.2,0-6.5,0-9.7,0C177.6,62.9,177.4,62.8,177.3,62.7z"/>
	<path class="st0" d="M200.5,62.8c-2,0-3.9,0-5.9,0c0-0.1,0-0.1,0-0.2c0.2,0,0.3-0.1,0.5-0.1c1.1-0.2,1.6-0.7,1.6-1.8
		c0-3.7,0-7.4,0-11.1c0-1.5-0.3-1.9-1.8-2.1c-0.1,0-0.2-0.1-0.3-0.1c0.5-0.4,5.2-0.4,6.2,0c-0.3,0.1-0.5,0.1-0.7,0.2
		c-1.1,0.2-1.5,0.7-1.5,1.8c0,3.8,0,7.5,0,11.2c0,1.4,0.3,1.7,1.7,2c0.1,0,0.2,0.1,0.3,0.1C200.5,62.6,200.5,62.7,200.5,62.8z"/>
	<path class="st0" d="M147.9,53.6c0,0.7,0,1.3,0,2c-0.1,0-0.1,0-0.2,0c0-0.7-0.1-1.3-0.1-2C147.7,53.6,147.8,53.6,147.9,53.6z"/>
</g>
</svg>
