<?xml version="1.0" encoding="utf-8"?>
<!-- Generator: Adobe Illustrator 23.0.2, SVG Export Plug-In . SVG Version: 6.00 Build 0)  -->
<svg version="1.1" id="Layer_1" xmlns="http://www.w3.org/2000/svg" xmlns:xlink="http://www.w3.org/1999/xlink" x="0px" y="0px"
	 viewBox="0 0 31.58 427" style="enable-background:new 0 0 31.58 427;" xml:space="preserve">
<style type="text/css">
	.st0{fill:#B22A2A;}
</style>
<g>
	<path class="st0" d="M0,214.39c1.98-0.08,2.7-0.77,2.93-2.72c0.8-6.9,1.61-13.8,2.43-20.7c0.03-0.27,0.17-0.53,0.54-0.84
		c3.15,6.79,6.29,13.58,9.57,20.64c3.18-7.02,6.27-13.81,9.35-20.6c0.09,0,0.19,0,0.28,0c0.09,0.32,0.22,0.63,0.26,0.95
		c0.74,5.97,1.47,11.95,2.2,17.93c0.08,0.66,0.16,1.32,0.23,1.98c0.31,2.85,0.88,3.36,3.8,3.36c0,0.15,0,0.3,0,0.44
		c-2.71,0-5.43,0-8.14,0c-0.01-0.09-0.02-0.19-0.04-0.28c0.14-0.06,0.27-0.16,0.42-0.17c1.01-0.11,1.42-0.69,1.34-1.67
		c-0.25-3.06-0.5-6.11-0.77-9.17c-0.18-2.02-0.38-4.05-0.57-6.07c-0.03-0.35-0.08-0.69-0.37-1.09c-2.8,6.32-5.6,12.64-8.44,19.07
		c-2.84-6.16-5.69-12.34-8.54-18.51c-0.07,0.01-0.14,0.01-0.21,0.02c-0.14,1.22-0.3,2.43-0.41,3.65c-0.38,4.08-0.76,8.17-1.08,12.26
		c-0.09,1.16,0.8,1.53,1.86,1.59c-0.02,0.13-0.04,0.25-0.05,0.38c-2.19,0-4.38,0-6.57,0C0,214.68,0,214.54,0,214.39z"/>
	<path class="st0" d="M22.24,0c0,1.29,0,2.57,0,4.09c-0.15-0.35-0.25-0.5-0.28-0.67C21.73,2.29,21.01,1.8,19.9,1.8
		c-1.96,0-3.93,0-5.89,0c-0.47,0-0.89-0.01-0.89,0.67c0.02,3.22,0.01,6.44,0.01,9.79c2.09,0,4.13,0.14,6.12-0.09
		c0.59-0.07,1.06-1.16,1.53-1.71c0,1.54,0,3.34,0,5.15c-0.07-0.01-0.19-0.01-0.2-0.04c-0.48-1.89-0.68-2.04-2.64-2.04
		c-1.55,0-3.1,0-4.81,0c0,1.37,0,2.65,0,3.93c0,1.41,0,2.82,0,4.22c0,1.78,0.5,2.38,2.23,2.69c0.15,0.03,0.29,0.14,0.47,0.23
		c-0.64,0.54-6.22,0.62-7.21,0.12c0.09-0.12,0.15-0.3,0.25-0.32c1.57-0.4,1.88-1.51,1.87-2.96c-0.04-5.56-0.04-11.12,0-16.68
		c0.01-1.69,0.17-3.38-2.29-3.73C8.54,0.92,8.62,0.82,8.7,0.71c0.33-0.02,0.67-0.05,1-0.05c2.93,0,5.86,0.06,8.78-0.03
		c1.18-0.04,2.36-0.41,3.54-0.63C22.09,0,22.17,0,22.24,0z"/>
	<path class="st0" d="M12.45,427c0.24-0.15,0.46-0.36,0.72-0.44c0.91-0.27,1.51-0.8,1.51-1.8c0.01-5.63,0-11.27-0.01-16.9
		c0-0.1-0.05-0.21-0.1-0.43c-1.94,0-3.9-0.08-5.84,0.06c-0.48,0.04-0.95,0.77-1.35,1.26c-0.17,0.2-0.12,0.58-0.4,0.86
		c0-1.22,0-2.43,0-3.66c5.85,0.51,11.73,0.53,17.68,0c0,1.18,0,2.4,0,3.62c-0.07,0.01-0.14,0.02-0.2,0.03
		c-0.05-0.25-0.11-0.5-0.15-0.76c-0.14-0.84-0.63-1.38-1.47-1.4c-1.92-0.04-3.84-0.01-5.92-0.01c0,0.48,0,0.88,0,1.27
		c0,5.08,0,10.15,0,15.23c0,1.79,0.22,2.07,1.98,2.66c0.11,0.04,0.15,0.27,0.22,0.41C16.9,427,14.68,427,12.45,427z"/>
	<path class="st0" d="M6.11,401.56c1.91-0.38,1.98-1.76,1.96-3.3c-0.05-4.52-0.04-9.04,0-13.56c0.01-1.59,0.07-3.11-2.02-3.57
		c2.08,0,4.16,0,6.24,0c0.02,0.06,0.04,0.12,0.06,0.18c-0.24,0.08-0.54,0.09-0.7,0.24c-0.51,0.48-1.34,0.99-1.37,1.53
		c-0.14,2.57-0.06,5.16-0.06,7.81c3.82,0,7.54,0,11.44,0c0-1.02,0-2,0-2.98c0-1.15-0.06-2.3,0.01-3.44
		c0.11-1.62-0.23-2.88-2.07-3.34c2.12,0,4.23,0,6.35,0c0.01,0.08,0.02,0.16,0.04,0.24c-0.25,0.06-0.5,0.11-0.74,0.18
		c-0.88,0.25-1.43,0.82-1.44,1.74c-0.02,5.41-0.02,10.82,0,16.23c0.01,1.34,1.05,1.69,2.1,2.07c-2.08,0-4.17,0-6.25,0
		c2.04-0.39,2.06-1.88,2.01-3.47c-0.06-1.95-0.01-3.91-0.01-5.94c-3.84,0-7.56,0-11.47,0c0,0.95,0,1.89,0,2.84c0,1.15,0,2.3,0,3.45
		c0,2.12,0.17,2.37,2.12,3.11C10.24,401.56,8.18,401.56,6.11,401.56z"/>
	<path class="st0" d="M20.61,280.69c1.79,0,3.58,0,5.55,0c-0.23,0.21-0.29,0.32-0.38,0.34c-1.47,0.35-1.79,0.71-1.78,2.18
		c0.07,6.07,0.15,12.15,0.22,18.22c0,0.07-0.05,0.13-0.2,0.5c-4.98-5.65-9.87-11.19-14.9-16.89c-0.04,0.47-0.08,0.74-0.08,1.01
		c0,4.08,0,8.15,0,12.23c0,1.91,0.26,2.26,2,2.9c-1.79,0-3.58,0-5.37,0c-0.01-0.05-0.02-0.09-0.03-0.14
		c0.18-0.06,0.35-0.13,0.54-0.17c0.96-0.22,1.47-0.8,1.46-1.8c-0.06-6.15-0.12-12.3-0.17-18.45c0-0.21,0.07-0.42,0.14-0.77
		c4.98,5.61,9.88,11.14,14.77,16.66c0.1-0.02,0.2-0.04,0.3-0.06c0-0.33,0-0.67,0-1c0-3.78,0-7.56,0-11.34
		C22.66,281.76,22.6,281.66,20.61,280.69z"/>
	<path class="st0" d="M24.4,362.72c-0.12-0.28-0.27-0.55-0.36-0.84c-0.91-2.66-2.73-4.28-5.5-4.76c-3.23-0.56-6.31-0.36-8.79,2.15
		c-3.25,3.29-3.49,10.47-0.51,14c2.81,3.32,8.1,3.96,12.17,1.56c1.4-0.83,2.3-1.77,2-3.52c-0.11-0.65-0.01-1.33-0.01-2
		c0.01-1.44-0.13-1.59-1.62-1.8c-0.13-0.02-0.26-0.08-0.36-0.35c2.09,0,4.19,0,6.35,0c-0.09,0.12-0.13,0.25-0.19,0.26
		c-1.78,0.44-1.78,0.44-1.78,2.24c0,0.48-0.07,0.98,0.01,1.44c0.28,1.57-0.48,2.59-1.65,3.47c-4.26,3.21-8.91,3.66-13.74,1.72
		c-4.65-1.87-6.24-6.55-5.87-10.82c0.27-3.12,1.39-5.89,4.1-7.65c1.3-0.84,2.84-1.41,4.35-1.83c3.47-0.95,6.78-0.18,9.99,1.24
		c0.66,0.29,1.05,0.68,1.12,1.46c0.13,1.31,0.4,2.61,0.6,3.92C24.61,362.65,24.5,362.68,24.4,362.72z"/>
	<path class="st0" d="M26.94,228.2c-0.07,0.62-0.14,1.24-0.22,2.05c0.66-0.13,1.05-0.16,1.42-0.28c0.37-0.13,0.7-0.34,0.77-0.38
		c-0.41,0.51-1.02,1.2-1.56,1.94c-0.22,0.31-0.37,0.72-0.41,1.1c-0.35,3.47-1.94,6.19-4.9,8.03c-1.33,0.83-2.37,1.76-2.3,3.48
		c0,0.12-0.13,0.24-0.21,0.38c-0.22-0.73-0.43-1.41-0.64-2.09c-1.4,0.53-1.76,1.44-1.51,3.24c0.12,0.9,0.12,1.81,0.18,2.71
		c-0.1,0.01-0.2,0.02-0.29,0.03c-0.12-1.17-0.24-2.34-0.36-3.52c-0.06-0.59-0.08-1.19-0.26-1.75c-0.08-0.25-0.5-0.39-0.76-0.57
		c-0.16,0.24-0.39,0.46-0.46,0.72c-0.1,0.38-0.08,0.78-0.22,1.27c0.05-1.7-0.93-2.02-2.33-2.27c-1.58-0.28-3.07-1-4.61-1.53
		c0.04-0.13,0.09-0.26,0.13-0.38c0.23,0.07,0.49,0.1,0.7,0.2c2.87,1.38,5.85,1.23,8.79,0.4c3.61-1.01,6.11-4.36,6.37-8.26
		c0.35-5.29-2.45-9.66-7.38-11.53c1.36-0.28,3.72,0.47,5.58,1.77c1.65,1.15,2.89,2.63,3.69,4.49c0.12,0.27,0.46,0.44,0.7,0.65
		C26.86,228.13,26.9,228.17,26.94,228.2z"/>
	<path class="st0" d="M19.76,270.72c-0.7,0.59-1.44,1.21-2.13,1.79c0.11-1.18-0.89-0.81-1.63-0.76c-0.8,0.05-1.5,0.22-1.57,1.31
		c-0.13,2.36-0.37,4.71-0.66,7.08c-0.07-2.09-0.14-4.17-0.21-6.26c-0.03-0.86-0.09-1.73-0.94-2.24c-1-0.61-1.53-0.36-1.76,0.82
		c-0.02,0.11-0.05,0.22-0.1,0.31c-0.03,0.06-0.1,0.1-0.24,0.23c-0.04-0.23-0.08-0.41-0.09-0.59c-0.07-1.06-0.54-1.72-1.49-2.36
		c-1.35-0.91-2.63-2.07-3.6-3.38c-0.83-1.12-1.45-2.19-3.18-1.75c0.45-0.85,1.85-0.35,1.63-1.54c-0.06-0.32-0.37-0.6-0.52-0.84
		c0.12-0.25,0.49-0.63,0.46-0.97c-0.77-7.31,5.96-11.59,10.74-11.37c-6.72,2.87-9.71,7.61-7.36,14.73
		C8.63,269.52,12.66,271.18,19.76,270.72z"/>
	<path class="st0" d="M12.71,325.76c2.19,0,4.34,0.12,6.46-0.04c1.81-0.13,2.96-1.37,3.75-2.95c0.16-0.32,0.45-0.57,0.86-0.68
		c-0.54,1.39-1.05,2.8-1.64,4.17c-0.12,0.29-0.54,0.64-0.82,0.65c-4.48,0.04-8.95,0.03-13.51,0.03c0.1-0.17,0.13-0.32,0.19-0.33
		c2.01-0.43,2.23-0.7,2.23-2.72c0-4.63,0-9.25,0-13.88c0-2.62-0.02-2.66-2.39-3.61c2.37,0,4.75,0,7.12,0
		c0.01,0.06,0.02,0.13,0.04,0.19c-0.32,0.08-0.64,0.15-0.96,0.25c-0.91,0.28-1.46,0.89-1.46,1.86c0,5.59,0.01,11.18,0.02,16.77
		C12.61,325.54,12.65,325.6,12.71,325.76z"/>
	<path class="st0" d="M12.04,331.03c2.69,0,5.16,0,7.92,0c-3,1.23-3,1.23-3,4.43c0,4.3,0,8.6,0,12.9c0,2.05,0.34,2.44,2.42,2.84
		c0.15,0.03,0.27,0.17,0.37,0.48c-2.52,0-5.04,0-7.56,0c-0.03-0.05-0.06-0.11-0.1-0.16c0.23-0.12,0.45-0.28,0.69-0.34
		c1.44-0.37,1.9-0.94,1.9-2.43c0-4.85,0-9.71,0-14.56c0-1.97-0.29-2.34-2.2-2.83C12.38,331.32,12.31,331.23,12.04,331.03z"/>
	<path class="st0" d="M26.82,228.09c0.08-0.03,0.16-0.05,0.24-0.08c-0.04,0.06-0.08,0.12-0.12,0.19
		C26.9,228.17,26.86,228.13,26.82,228.09z"/>
	<path class="st0" d="M8.37,62.57c0.22,2.41,0.44,4.82,0.66,7.23c0.09,0,0.18,0,0.28-0.01c0.3-1.97,0.59-3.94,0.89-5.91
		c0.13,0.01,0.26,0.02,0.4,0.02c0,1.9,0,3.8,0,5.7c0.12,0.01,0.24,0.02,0.35,0.03c0.87-1.2,1.18-2.61,1.31-4.06
		c0.39-4.22,0.75-8.45,1.12-12.68c0.1-0.01,0.2-0.01,0.3-0.02c0.26,4.22,0.53,8.44,0.8,12.7c0.12-0.15,0.26-0.32,0.48-0.6
		c0,1.12,0,2.16,0,3.19c0.13,0.02,0.26,0.04,0.39,0.05c0.64-1.66,0.6-3.47,1.07-5.3c0.18,1.68,0.35,3.27,0.53,4.86
		c0.09,0.02,0.17,0.03,0.26,0.05c0.14-0.74,0.29-1.47,0.49-2.5c0.12,1.1,0.12,1.94,0.34,2.71c0.13,0.45,0.62,0.8,0.95,1.2
		c0.39-0.38,1.04-0.7,1.13-1.14c0.37-1.84,0.58-3.71,0.85-5.58c0.04-0.25,0.06-0.5,0.2-0.76c0.73,3.14,0.41,6.46,1.63,9.55
		c1.17-3.3,1.07-6.78,1.77-10.11c0.11-0.01,0.22-0.01,0.33-0.02c0.36,4.56,0.72,9.13,1.08,13.69c0.11,0,0.21,0,0.32,0.01
		c0.81-2.38-0.02-4.97,0.81-7.56c0.15,2.09,0.35,3.98,0.4,5.87c0.09,2.91,0.28,5.84,0.06,8.74c-0.33,4.28-2.78,7.21-6.74,8.71
		c-5.14,1.94-11.48,0.79-14.66-3.89c-1.08-1.59-1.79-3.32-1.69-5.3c0.21-4.23,0.43-8.46,0.64-12.68c0.13-0.01,0.26-0.01,0.39-0.02
		c0.1,1.14,0.17,2.28,0.31,3.42c0.04,0.34,0.26,0.67,0.4,1c0.15-0.33,0.4-0.65,0.45-1c0.19-1.42,0.32-2.86,0.69-4.29
		c0.09,1.01,0.18,2.02,0.27,3.03c0.11,0,0.21,0,0.32,0C8.47,68.15,8.08,65.34,8.37,62.57z M6.9,80.7c0.22,1.16,0.31,2.35,0.67,3.46
		c1.03,3.2,3.2,5.34,6.51,6.02c3.3,0.68,6.25-0.16,8.54-2.77c2.02-2.29,2.48-5.04,2.31-7.97c-0.27-4.65-4.28-8.46-8.93-8.46
		C10.86,70.99,7.06,75.1,6.9,80.7z"/>
	<path class="st0" d="M19.13,39.63c1.63,2.02,3.17,4,4.79,5.92c1.26,1.49,2.49,3.08,4.75,3.13c-2.7,0.79-5.53-0.06-7.29-2.2
		c-1.12-1.37-2.13-2.85-3.16-4.29c-1.07-1.49-2.18-2.9-4.12-3.49c0.21-0.05,0.41-0.15,0.62-0.16c0.81-0.03,1.63-0.02,2.44-0.06
		c2.57-0.11,4.13-1.75,4.17-4.38c0.04-2.63-1.44-4.31-4.01-4.52c-0.92-0.07-1.85-0.13-2.77-0.15c-0.51-0.01-1.02,0.08-1.65,0.14
		c0,0.45,0,0.85,0,1.25c0,4.78,0,9.56,0,14.34c0,2.74,0,2.74,2.6,3.69c-2.57,0-4.88,0-7.19,0c-0.01-0.05-0.02-0.1-0.04-0.15
		c0.21-0.05,0.43-0.13,0.64-0.16c1.09-0.15,1.7-0.82,1.7-1.86c0.03-5.33,0.02-10.67,0.01-16c0-1.03-0.61-1.63-1.56-1.9
		c-0.27-0.08-0.54-0.11-0.91-0.18c0.17-0.15,0.24-0.28,0.31-0.28c3.44,0.04,6.9-0.12,10.32,0.19c3.24,0.3,4.96,2.27,5.16,5.13
		c0.19,2.61-1.52,4.87-4.38,5.82C19.45,39.48,19.32,39.55,19.13,39.63z"/>
	<path class="st0" d="M5.62,165.92c1.98-0.87,2.01-0.9,2.01-3.1c-0.02-5.48-0.05-10.97-0.08-16.45c0-0.54-0.06-1.07,0.14-1.7
		c4.91,5.53,9.82,11.06,14.92,16.82c0.03-0.6,0.05-0.88,0.05-1.16c0-4,0.01-8,0-12c0-1.82-0.33-2.26-2.03-2.91c1.78,0,3.57,0,5.64,0
		c-0.37,0.21-0.48,0.31-0.6,0.34c-1.33,0.32-1.69,0.72-1.68,2.04c0.06,6.07,0.14,12.14,0.21,18.22c0,0.1-0.05,0.2-0.17,0.67
		c-5.02-5.69-9.89-11.21-14.95-16.96c-0.03,0.58-0.05,0.91-0.05,1.24c0,3.82,0.01,7.63-0.01,11.45c-0.01,1.56-0.17,3.17,2.24,3.26
		c-0.07,0.09-0.14,0.17-0.21,0.26C9.25,165.92,7.44,165.92,5.62,165.92z"/>
	<path class="st0" d="M24.18,135.81c-0.53,1.38-1.02,2.77-1.61,4.11c-0.15,0.35-0.64,0.77-0.97,0.78c-4.3,0.05-8.59,0.03-12.89,0.03
		c-0.13,0-0.26-0.06-0.66-0.15c0.37-0.16,0.5-0.24,0.64-0.27c1.47-0.28,1.96-0.84,1.97-2.32c0.01-5.04,0-10.08,0-15.11
		c0-1.67-0.36-2.07-2.08-2.39c-0.12-0.02-0.23-0.12-0.32-0.3c4.6-0.5,9.25,0.28,13.86-0.67c0,1.24,0,2.56,0,3.98
		c-0.21-0.13-0.35-0.17-0.36-0.24c-0.46-1.95-0.64-2.09-2.7-2.09c-1.74,0-3.48,0.02-5.22-0.01c-0.67-0.01-0.91,0.22-0.9,0.9
		c0.03,2.3,0.04,4.59,0,6.89c-0.01,0.77,0.3,0.94,0.99,0.92c1.22-0.04,2.44-0.01,3.67-0.01c2.07,0,2.11-0.02,2.73-1.9
		c0.42,0.55,0.51,3.63,0.14,4.79c-0.07-0.01-0.19-0.01-0.2-0.04c-0.58-1.74-0.58-1.74-2.39-1.74c-1.3,0-2.59,0.03-3.89-0.01
		c-0.74-0.03-1.07,0.16-1.05,0.98c0.05,2.26,0.02,4.52,0.01,6.78c0,0.54,0.05,0.95,0.76,0.92c1.85-0.07,3.7-0.06,5.54-0.17
		c1.92-0.11,3.2-1.2,4.05-2.87c0.18-0.34,0.44-0.64,0.66-0.96C24.01,135.69,24.1,135.75,24.18,135.81z"/>
	<path class="st0" d="M22.52,94.51c-3.87,6.55-7.73,13.08-11.71,19.81c1.65,0,3.11,0,4.58,0c1.22,0,2.44,0,3.67,0
		c2.04,0,3.56-0.85,4.45-2.73c0.16-0.33,0.33-0.66,0.51-0.98c0.01-0.02,0.07-0.01,0.33-0.04c-0.29,0.92-0.53,1.76-0.81,2.59
		c-0.83,2.49-0.84,2.49-3.42,2.49c-3.92,0-7.84,0-12.07,0c0.28-0.79,0.39-1.47,0.72-2.02c3.28-5.58,6.6-11.15,9.91-16.72
		c0.16-0.28,0.31-0.56,0.57-1.04c-1.51,0-2.86,0-4.21,0c-1.37,0-2.74,0-4.11,0c-1.59,0-1.89,0.28-2.1,1.89
		C8.79,97.88,8.72,98,8.51,98.1c0-1.25,0-2.49,0-3.6C13.11,94.51,17.71,94.51,22.52,94.51z"/>
</g>
</svg>
