<?xml version="1.0" encoding="utf-8"?>
<!-- Generator: Adobe Illustrator 23.0.1, SVG Export Plug-In . SVG Version: 6.00 Build 0)  -->
<svg version="1.1" id="Layer_1" xmlns="http://www.w3.org/2000/svg" xmlns:xlink="http://www.w3.org/1999/xlink" x="0px" y="0px"
	 width="274" height="31.58" viewBox="0 0 274 31.6" style="enable-background:new 0 0 274 31.6;" xml:space="preserve">
<style type="text/css">
	.st0{fill:#B22A2A;}
</style>
<g>
	<path class="st0" d="M0.3,9.6c1.8,0,3.5,0,5.3,0c1.3,0,2.7-0.2,4-0.2c0,0.8,0,1.6,0,2.5c-0.1,0-0.1,0.1-0.2,0.1
		c0-0.1,0-0.2-0.1-0.3c-0.3-1.2-0.4-1.3-1.6-1.3c-1.4,0-2.7,0-4.1,0c0,2.2,0,4.4,0,6.7c1.3,0,2.6,0,3.9,0c0.3,0,0.5-0.5,0.7-0.8
		c0.1-0.1,0.1-0.4,0.1-0.7c0.4,0.5,0.4,3.1,0.1,3.7c-0.1,0-0.2-0.1-0.2-0.1c-0.4-1.2-0.4-1.3-1.8-1.3c-0.8,0-1.7,0-2.5,0
		c-0.4,0-0.5,0.1-0.5,0.5c0,1.7,0,3.4,0,5.1c0,0.7,0.4,1.2,1.1,1.4c0.2,0,0.4,0.1,0.6,0.1c0,0.1,0,0.2,0,0.3c-1.7,0-3.3,0-5,0H0
		c0-0.1,0-0.2,0-0.3c1.4-0.1,1.8-0.5,1.8-2c0-3.9,0-7.7,0-11.6c0-1-0.3-1.4-1.3-1.7C0.6,9.9,0.5,9.7,0.3,9.6z"/>
	<path class="st0" d="M274,14.2c-0.3,0-0.4-0.1-0.5-0.4c0-0.7-0.4-1.1-1.1-1.1c-1.3,0-2.6,0-3.9,0c0,0.3,0,0.5,0,0.8
		c0,3.3,0,6.6,0,9.9c0,1.4,0.1,1.5,1.4,1.8c0.1,0,0.1,0.1,0.2,0.1c-0.3,0.4-4,0.4-4.9,0c0.3-0.1,0.5-0.2,0.7-0.2
		c0.6-0.2,1-0.5,1-1.1c0-3.7,0-7.4,0-11c0-0.1,0-0.1-0.1-0.2c-1.3,0-2.6,0-3.9,0c-0.6,0-1,0.4-1.1,1c0,0.2-0.1,0.3-0.1,0.5
		c-0.1,0-0.1,0-0.2,0c0-0.9,0-1.7,0-2.6c3.1,0.5,6.2,0.2,9.4,0.2c0.8,0,1.7-0.1,2.5-0.2c0.2,0,0.4,0,0.5,0
		C274,12.5,274,13.3,274,14.2z"/>
	<path class="st0" d="M0.2,25.5h0.1l-0.1,0.1C0.2,25.6,0.2,25.5,0.2,25.5z"/>
	<path class="st0" d="M32.8,10.6c0.1,1,0.2,2.1,0.4,3.1c0.1,0,0.2,0,0.3,0c0.2-1.2,0.3-2.4,0.5-3.6c0.1,0,0.1,0,0.2,0
		c0,0.7,0.1,1.4,0.1,2.1c0.1,0,0.2,0,0.3,0c0-2,0-3.9,0-5.9c0.1,0,0.1,0,0.2,0c0.2,1.7,0.4,3.5,0.5,5.2c0,0,0,0,0.1,0
		c0.2-1.4,0.4-2.7,0.6-4.1c0.1,0,0.1,0,0.2,0c0,0.7,0,1.3,0,2c0,0.6,0.1,1.3,0.2,1.9c0.7-1,0.9-2.1,1-3.3c0.2-2.6,0.4-5.2,0.6-7.9
		c0,0,0.1-0.1,0.3-0.1c0.2,2.8,0.4,5.7,0.5,8.6c0.1-0.1,0.1-0.3,0.2-0.5h0.1c0,0.7,0,1.5,0,2.2c0.1,0,0.2,0,0.3,0
		C39.6,9.1,39.8,8,40,6.8c0,0,0,0,0.1,0c0.1,1.1,0.2,2.1,0.3,3.2c0.1,0,0.1,0,0.2,0c0.1-0.5,0.2-1,0.3-1.5H41c0,0.3,0.1,0.7,0.1,1
		c0,0.2,0,0.4,0,0.6c0.2,0.3,0.5,0.6,0.7,0.9c0.2-0.3,0.6-0.5,0.7-0.8C42.7,9.1,42.8,8,43,6.9c0-0.3,0.1-0.7,0.2-1
		c0,0.2,0.1,0.4,0.1,0.6c0.1,1.4,0.2,2.8,0.3,4.1c0,0.5,0.2,1,0.3,1.5c0.1,0.3,0.2,0.4,0.3,0.4s0.2-0.1,0.2-0.2
		c0.1-0.2,0.1-0.5,0.1-0.7c0.2-2.4,0.5-4.8,0.7-7.1c0-0.1,0-0.1,0.2-0.2c0,0.6,0.1,1.3,0.1,1.9c0.1,1.2,0.1,2.4,0.1,3.7
		c0,0.3,0.4,0.6,0.4,0.9c0.2,1,0.2,2.2,0.2,3.4c0,0.2,0,0.4,0.1,0.6c0.1,0,0.2,0,0.3,0c0.1-1.6,0.2-3.3,0.3-4.9c0.1,0,0.1,0,0.2,0
		c0,0.8,0.1,1.7,0.1,2.5c0.1,2.5,0.3,5,0,7.5c-0.3,3.1-2.9,5.4-6,5.9c-2.5,0.4-4.8-0.1-6.8-1.8c-1.5-1.3-2.3-3-2.4-5
		c0-1.4,0.1-2.7,0.3-4.1c0.1-1.4,0.2-2.8,0.4-4.2C32.7,10.6,32.8,10.6,32.8,10.6z M39.7,25c1.4,0,2.4-0.3,3.3-1
		c2.3-1.7,2.8-4.1,2.4-6.7c-0.6-3.9-4.9-6-8.4-4.2c-2,1-2.9,2.8-3.1,5C33.5,22,36.2,25.1,39.7,25z"/>
	<path class="st0" d="M112,25.2c1.9,0,2.1-1.2,2.2-2.6c0.4-3.5,0.8-7.1,1.2-10.6c0.1-0.9,0.2-1.8,0.5-2.7c2.3,4.4,4.2,8.8,6.4,13.4
		c2.1-4.6,4.1-9,6.1-13.4c0.1,0,0.2,0,0.3,0c0.1,0.4,0.2,0.8,0.2,1.3c0.5,4.1,1,8.2,1.5,12.4c0.2,1.7,0.3,1.8,2.1,2.3
		c-0.3,0.4-4.4,0.4-5.1,0c0.2-0.1,0.3-0.1,0.5-0.1c0.6-0.1,0.9-0.4,0.8-1c-0.3-3.5-0.6-7-1-10.5c0,0,0-0.1-0.1-0.2
		c-1.8,4.2-3.7,8.2-5.5,12.5c-1.9-4.1-3.7-8.1-5.6-12.1h-0.1c-0.1,1-0.2,2-0.3,3c-0.2,2.2-0.4,4.5-0.6,6.7c-0.1,1.3-0.1,1.3,1.1,1.7
		C116.2,25.6,112.7,25.7,112,25.2z"/>
	<path class="st0" d="M86.4,15.1c0,2.9,0,5.8,0,8.8c0,0.9,0.4,1.2,1.3,1.3c0.1,0,0.2,0.1,0.3,0.1c-0.4,0.4-3.8,0.5-4.4,0.1
		c0,0,0-0.1,0.1-0.1c1.4-0.3,1.5-0.4,1.5-1.9c0-3.2,0-6.3,0-9.5c0-0.8-0.1-1.5-0.1-2.5c0.3,0.3,0.6,0.4,0.8,0.6
		c3.5,3.3,7,6.6,10.5,9.9c0.1,0.1,0.3,0.2,0.4,0.3h0.1c0,0,0-0.1-0.1-0.1c0-2.9,0-5.8,0-8.6c0-0.8-0.3-1.2-1.1-1.3
		c-0.1,0-0.3-0.1-0.5-0.1c0.5-0.4,3.8-0.4,4.4-0.1v0.1c-1.5,0.4-1.5,0.4-1.5,2c0,3.3,0,6.6,0,9.8c0,0.6,0.1,1.2,0.2,2
		c-0.4-0.3-0.6-0.4-0.8-0.6c-3.4-3.3-6.9-6.5-10.3-9.8C86.9,15.4,86.7,15.2,86.4,15.1c0-0.1,0-0.1,0-0.1V15.1z"/>
	<path class="st0" d="M190.2,22.4c0-1.4,0-2.6,0-3.8c0-1.5,0-2.9,0-4.4c0-1.7,0-1.7-1.6-2.2c0.3-0.4,3.6-0.4,4.5,0
		c-0.3,0.1-0.4,0.1-0.6,0.1c-0.8,0.1-1.2,0.5-1.2,1.3c0.1,4,0.1,7.9,0.2,11.9c0,0.1-0.1,0.3-0.1,0.5c-3.9-3.7-7.8-7.4-11.7-11.1
		c0,0.3-0.1,0.4-0.1,0.6c0,2.5,0,5.1,0,7.6c0,1.6,0.1,1.8,1.6,2.1c-0.3,0.4-3.7,0.4-4.3,0.1c0,0,0-0.1,0.1-0.1
		c1.4-0.4,1.5-0.4,1.5-2c0-3.1,0-6.3,0-9.4c0-0.7-0.1-1.5-0.1-2.2c0.1,0,0.1-0.1,0.2-0.1C182.4,15.1,186.2,18.7,190.2,22.4z"/>
	<path class="st0" d="M254,18.3c0-1.7,0-3.3,0-4.9c0-0.7-0.5-1.1-1.1-1.2c-0.1,0-0.3-0.1-0.5-0.1c0.5-0.4,4.3-0.4,4.8,0
		c-0.3,0.1-0.5,0.1-0.7,0.2c-0.6,0.2-0.9,0.5-0.9,1.1c0,3.5,0,7,0,10.5c0,0.6,0.4,1,1,1.2c0.2,0.1,0.4,0.1,0.6,0.1
		c-0.5,0.4-4.3,0.4-4.8,0c0.2,0,0.3-0.1,0.4-0.1c0.8-0.2,1.2-0.5,1.2-1.4c0-1.4,0-2.7,0-4.1c0-0.2-0.3-0.5-0.4-0.5
		c-2.5,0-5.1,0-7.7,0c0,0.7,0,1.4,0,2.1c0,0.8,0,1.6,0,2.4c0,1.1,0.2,1.3,1.3,1.5c0.1,0,0.2,0.1,0.3,0.1c-0.4,0.4-4.2,0.5-4.8,0
		c0.2-0.1,0.3-0.1,0.5-0.1c0.8-0.2,1.1-0.6,1.1-1.4c0-3.3,0-6.7,0-10c0-1-0.2-1.3-1.3-1.5c-0.1,0-0.2-0.1-0.3-0.1
		c0.4-0.4,4.2-0.4,4.9,0c-1.9,0-1.7,1.3-1.7,2.5s0,2.4,0,3.7C248.6,18.3,251.2,18.3,254,18.3z"/>
	<path class="st0" d="M22.5,19.4c1.2,1.4,2.3,2.8,3.5,4.3c0.6,0.8,1.4,1.4,2.4,1.5c0.1,0,0.1,0.1,0.3,0.2c-0.3,0.1-0.4,0.2-0.6,0.2
		c-1.8,0-3.4-0.5-4.5-2.1c-0.5-0.6-0.9-1.3-1.4-1.9c-0.8-1.2-1.5-2.4-3.1-2.7c0-0.1,0-0.1,0-0.2c0.6,0,1.2-0.2,1.8-0.1
		c2.1,0.1,3.1-1.4,2.9-3.5c-0.1-1.2-1-2.1-2.5-2.3c-0.9-0.1-1.9,0-3,0c0,0.3,0,0.5,0,0.8c0,3.2,0,6.4,0,9.6c0,1.6,0.1,1.8,1.6,2.2
		c-0.3,0.4-4.1,0.5-4.7,0.1v-0.1c1.4-0.4,1.5-0.5,1.5-2c0-2.9,0-5.8,0-8.8c0-1.8,0-1.8-1.7-2.4c0.3-0.1,0.4-0.2,0.6-0.2
		c2.1,0,4.2,0,6.3,0.1c1.6,0.1,2.9,0.9,3.4,2.6c0.5,1.5,0,2.9-1.2,3.9C23.7,18.9,23,19.1,22.5,19.4z"/>
	<path class="st0" d="M235.9,16.2c-0.1-0.2-0.2-0.4-0.2-0.5c-0.7-2-2.1-3-4.2-3.2c-1.6-0.2-3.1-0.1-4.5,0.9
		c-1.8,1.4-2.3,3.3-2.3,5.4c0,2,0.5,3.8,2.2,5.1c2.1,1.7,6.2,1.4,8-0.6c0.1-0.2,0.2-0.4,0.3-0.6c0.1-0.7,0.1-1.4,0.1-2.1
		c0-1-0.1-1.1-1.1-1.3c-0.1,0-0.2-0.1-0.3-0.1c0.4-0.4,3.7-0.4,4.2-0.1c0,0,0,0.1-0.1,0.1c-1.2,0.3-1.2,0.3-1.2,1.6
		c0,0.2,0,0.4,0,0.6c0.3,1.3-0.5,2.1-1.4,2.8c-3.3,2.4-8.3,2.1-10.8-0.7c-2-2.3-2.2-4.9-1.3-7.7c0.9-2.6,3-3.9,5.7-4.3
		c2.1-0.3,4.1,0,6,1c0.5,0.2,0.7,0.5,0.7,1c0.1,0.9,0.2,1.7,0.4,2.6C236.1,16.2,236,16.2,235.9,16.2z"/>
	<path class="st0" d="M60.6,12.7c-2.3,0-4.5,0-6.6,0c-0.5,0-0.8,0.3-0.9,0.9c0,0.2-0.1,0.4-0.1,0.6c-0.1,0-0.1,0-0.2,0
		c0-0.9,0-1.7,0-2.6c3.4,0.4,6.8,0.3,10.4,0.1c-2.9,4.4-5.7,8.6-8.6,13c0.5,0,0.8,0,1,0c1.6,0,3.2,0,4.8,0c1.7,0.1,2.8-0.6,3.5-2.1
		c0.1-0.1,0.1-0.2,0.2-0.4c0,0,0.1,0,0.2,0c0,0.2,0,0.3,0,0.4c-0.3,0.9-0.6,1.7-1,2.6c-0.1,0.2-0.3,0.4-0.5,0.4c-3.4,0-6.8,0-10.3,0
		c-0.1,0-0.2-0.1-0.4-0.2C55,21.2,57.8,17,60.6,12.7z"/>
	<path class="st0" d="M76.9,17c0.3,1.2,0.2,2.2,0.2,3.3c-0.1,0-0.2,0-0.3,0c-0.1-0.2-0.1-0.5-0.2-0.6c-0.1-0.2-0.4-0.5-0.6-0.5
		c-1.3,0-2.6,0-3.9,0c0,1.8,0,3.6,0,5.6c1.6-0.1,3.2-0.1,4.8-0.3c0.9-0.1,1.4-0.8,1.8-1.6c0.1-0.2,0.3-0.5,0.4-0.7
		c0.1,0,0.1,0,0.2,0.1c0,0.1,0,0.3,0,0.4c-0.3,0.8-0.6,1.7-1,2.5c-0.1,0.2-0.4,0.5-0.7,0.5c-2.7,0-5.5,0-8.2,0
		c-0.2,0-0.4-0.1-0.5-0.3c0.1,0,0.2-0.1,0.4-0.1c0.9-0.2,1.2-0.5,1.2-1.5c0-3.3,0-6.7,0-10c0-1-0.3-1.3-1.3-1.5
		c-0.1,0-0.2-0.1-0.3-0.2c0.2,0,0.5-0.1,0.7-0.1c1.6,0,3.2,0,4.8,0c1.2,0,2.4-0.1,3.7-0.2c0,0.8,0,1.7,0,2.7
		c-0.2-0.2-0.3-0.2-0.3-0.3c-0.2-1.2-0.4-1.3-1.6-1.3c-1.3,0-2.7,0-4.1,0c0,0.4,0,0.7,0,1c0,1.3,0,2.6,0,3.9c0,0.5,0.1,0.8,0.7,0.7
		c0.7-0.1,1.3,0,2,0C75.7,18.3,76.7,18.5,76.9,17z"/>
	<path class="st0" d="M155.9,21.4c0.5-0.4,0.9-0.7,1.2-1c0,0-0.3-0.4-0.5-0.6c0.1-0.2,0.4-0.4,0.4-0.6c-0.4-2.9,1.6-6.4,5.6-7.3
		c0.9-0.2,1.8-0.2,2.8-0.2c-2.5,0.3-4.3,1.5-5.6,3.5c-1,1.4-1.2,3.1-0.9,4.7c0.3,2.2,1.4,4,3.6,4.8c2,0.8,4,1,6.1,0.1
		c0,0.1,0,0.1,0,0.2c-0.4,0.2-0.8,0.4-1.2,0.5c-0.8,0.1-1,0.6-0.9,1.3c0,0.2,0,0.3-0.1,0.5c-0.1-0.2-0.1-0.4-0.2-0.5
		c-0.1-0.3-0.2-0.8-0.4-0.8c-0.5,0-1,0.1-1.4,0.2c-0.1,0-0.2,0.4-0.3,0.6c-0.1,1.4-0.1,2.7-0.2,4.1c0,0.2-0.1,0.5-0.1,0.7
		c-0.1,0-0.1,0-0.2,0c-0.1-1.5-0.1-2.9-0.2-4.4c0-0.5-0.1-1-0.6-1.3c-0.6-0.3-0.8-0.2-1,0.5c-0.1,0.2-0.2,0.4-0.3,0.6
		c0.1-1.1-0.3-1.7-1.2-2.3c-0.8-0.4-1.5-1.2-2-1.9C157.6,21.9,157.2,21,155.9,21.4z"/>
	<path class="st0" d="M152,16.4c0,0.3-0.1,0.8-0.1,1.2c0.1,0,0.1,0.1,0.2,0.1c0.5-0.2,1.1-0.4,1.6-0.6c0,0,0,0.1,0.1,0.1
		c-0.4,0.4-1,0.7-1.3,1.2c-0.3,0.3-0.4,0.7-0.5,1.1c-0.3,2.2-1.3,3.9-3.1,5c-0.9,0.6-1.5,1.2-1.6,2.3c0,0.1-0.1,0.2-0.2,0.4
		c-0.2-0.5-0.3-1-0.4-1.4c-0.8,0.3-1.1,1-1,2c0.1,0.7,0.1,1.3,0.1,2c-0.1,0-0.1,0-0.2,0c-0.1-0.8-0.2-1.6-0.2-2.3
		c0-0.4-0.1-0.8-0.2-1.2c0-0.2-0.3-0.3-0.4-0.4c-0.1,0.1-0.3,0.3-0.3,0.4c-0.1,0.3-0.1,0.5-0.3,0.8c0-0.1-0.1-0.2-0.1-0.3
		c0.1-0.8-0.4-1-1.1-1.1c-1.5-0.2-2.9-0.8-4-1.8c3.2,1.6,6.3,1.9,9.2-0.4c1.2-1,1.8-2.4,1.9-4c0.3-4.3-2.3-7.5-6.3-7.8
		c1.1-0.4,2-0.1,2.8,0.1c2.2,0.6,3.8,1.9,4.8,4C151.6,16.1,151.8,16.2,152,16.4z"/>
	<path class="st0" d="M202.6,12.1c-0.3,0.1-0.5,0.1-0.7,0.2c-0.6,0.2-1,0.5-1,1.2c0,3.6,0,7.1,0,10.7c0,0.4,0.2,0.5,0.6,0.5
		c1,0,2,0,3.1,0c1.4,0,2.4-0.6,3-1.9c0.1-0.2,0.3-0.4,0.4-0.7c0.1,0,0.1,0.1,0.2,0.1c-0.4,1-0.8,2.1-1.2,3.1c0,0.1-0.3,0.2-0.5,0.2
		c-2.8,0-5.7,0-8.5,0c-0.1,0-0.2-0.1-0.4-0.3c0.2-0.1,0.4-0.1,0.6-0.2c0.6-0.2,1-0.5,1-1.2c0-3.5,0-6.9,0-10.4c0-0.6-0.3-1-0.9-1.2
		c-0.2-0.1-0.4-0.1-0.7-0.2C198.2,11.7,201.9,11.7,202.6,12.1z"/>
	<path class="st0" d="M217.9,25.3c-0.6,0.4-4.8,0.4-5.3,0.1c0,0,0-0.1,0.1-0.1c1.7-0.4,1.7-0.4,1.7-2.2c0-3,0-6,0-9
		c0-1.3-0.2-1.5-1.5-1.8c-0.1,0-0.2-0.1-0.3-0.1c0.4-0.4,4.5-0.4,5.4,0c-0.4,0.1-0.6,0.1-0.8,0.2c-0.9,0.2-1.2,0.6-1.2,1.5
		c0,3.2,0,6.5,0,9.7c0,1.3,0.3,1.6,1.5,1.8C217.7,25.2,217.7,25.2,217.9,25.3z"/>
	<path class="st0" d="M86.4,15.1V15C86.4,15,86.4,15,86.4,15.1C86.5,15,86.4,15.1,86.4,15.1z"/>
	<path class="st0" d="M96.9,22.2L96.9,22.2C96.9,22.3,96.9,22.2,96.9,22.2C96.8,22.2,96.9,22.2,96.9,22.2z"/>
</g>
</svg>
