<?xml version="1.0" encoding="utf-8"?>
<!-- Generator: Adobe Illustrator 23.0.1, SVG Export Plug-In . SVG Version: 6.00 Build 0)  -->
<svg version="1.1" id="Layer_1" xmlns="http://www.w3.org/2000/svg" xmlns:xlink="http://www.w3.org/1999/xlink" x="0px" y="0px"
	 width="274" height="31.58" viewBox="0 0 274 31.58" style="enable-background:new 0 0 274 31.58;" xml:space="preserve">
<style type="text/css">
	.st0{fill:#DCB05E;}
	.st1{fill:#FDFBF7;}
	.st2{fill:#DCB05D;}
	.st3{fill:#DCAF5C;}
	.st4{fill:#DCB160;}
	.st5{fill:#DCB05F;}
	.st6{fill:#FFFFFF;}
</style>
<g>
	<path class="st0" d="M0.3,9.59c1.8,0,3.5,0,5.3,0c1.3,0,2.7-0.2,4-0.2c0,0.8,0,1.6,0,2.5c-0.1,0-0.1,0.1-0.2,0.1
		c0-0.1,0-0.2-0.1-0.3c-0.3-1.2-0.4-1.3-1.6-1.3c-1.4,0-2.7,0-4.1,0c0,2.2,0,4.4,0,6.7c1.3,0,2.6,0,3.9,0c0.3,0,0.5-0.5,0.7-0.8
		c0.1-0.1,0.1-0.4,0.1-0.7c0.4,0.5,0.4,3.1,0.1,3.7c-0.1,0-0.2-0.1-0.2-0.1c-0.4-1.2-0.4-1.3-1.8-1.3c-0.8,0-1.7,0-2.5,0
		c-0.4,0-0.5,0.1-0.5,0.5c0,1.7,0,3.4,0,5.1c0,0.7,0.4,1.2,1.1,1.4c0.2,0,0.4,0.1,0.6,0.1c0,0.1,0,0.2,0,0.3c-1.7,0-3.3,0-5,0H0
		c0-0.1,0-0.2,0-0.3c1.4-0.1,1.8-0.5,1.8-2c0-3.9,0-7.69,0-11.59c0-1-0.3-1.4-1.3-1.7C0.6,9.89,0.5,9.69,0.3,9.59z"/>
	<path class="st0" d="M274,14.19c-0.3,0-0.4-0.1-0.5-0.4c0-0.7-0.4-1.1-1.1-1.1c-1.3,0-2.6,0-3.9,0c0,0.3,0,0.5,0,0.8
		c0,3.3,0,6.6,0,9.89c0,1.4,0.1,1.5,1.4,1.8c0.1,0,0.1,0.1,0.2,0.1c-0.3,0.4-4,0.4-4.9,0c0.3-0.1,0.5-0.2,0.7-0.2
		c0.6-0.2,1-0.5,1-1.1c0-3.7,0-7.39,0-10.99c0-0.1,0-0.1-0.1-0.2c-1.3,0-2.6,0-3.9,0c-0.6,0-1,0.4-1.1,1c0,0.2-0.1,0.3-0.1,0.5
		c-0.1,0-0.1,0-0.2,0c0-0.9,0-1.7,0-2.6c3.1,0.5,6.2,0.2,9.39,0.2c0.8,0,1.7-0.1,2.5-0.2c0.2,0,0.4,0,0.5,0
		C274,12.49,274,13.29,274,14.19z"/>
	<path class="st1" d="M0.2,25.48h0.1l-0.1,0.1V25.48z"/>
	<path class="st0" d="M32.78,10.59c0.1,1,0.2,2.1,0.4,3.1c0.1,0,0.2,0,0.3,0c0.2-1.2,0.3-2.4,0.5-3.6c0.1,0,0.1,0,0.2,0
		c0,0.7,0.1,1.4,0.1,2.1c0.1,0,0.2,0,0.3,0c0-2,0-3.9,0-5.9c0.1,0,0.1,0,0.2,0c0.2,1.7,0.4,3.5,0.5,5.2c0,0,0,0,0.1,0
		c0.2-1.4,0.4-2.7,0.6-4.1c0.1,0,0.1,0,0.2,0c0,0.7,0,1.3,0,2c0,0.6,0.1,1.3,0.2,1.9c0.7-1,0.9-2.1,1-3.3c0.2-2.6,0.4-5.2,0.6-7.89
		c0,0,0.1-0.1,0.3-0.1c0.2,2.8,0.4,5.7,0.5,8.59c0.1-0.1,0.1-0.3,0.2-0.5h0.1c0,0.7,0,1.5,0,2.2c0.1,0,0.2,0,0.3,0
		c0.2-1.2,0.4-2.3,0.6-3.5c0,0,0,0,0.1,0c0.1,1.1,0.2,2.1,0.3,3.2c0.1,0,0.1,0,0.2,0c0.1-0.5,0.2-1,0.3-1.5h0.1c0,0.3,0.1,0.7,0.1,1
		c0,0.2,0,0.4,0,0.6c0.2,0.3,0.5,0.6,0.7,0.9c0.2-0.3,0.6-0.5,0.7-0.8c0.2-1.1,0.3-2.2,0.5-3.3c0-0.3,0.1-0.7,0.2-1
		c0,0.2,0.1,0.4,0.1,0.6c0.1,1.4,0.2,2.8,0.3,4.1c0,0.5,0.2,1,0.3,1.5c0.1,0.3,0.2,0.4,0.3,0.4c0.1,0,0.2-0.1,0.2-0.2
		c0.1-0.2,0.1-0.5,0.1-0.7c0.2-2.4,0.5-4.8,0.7-7.09c0-0.1,0-0.1,0.2-0.2c0,0.6,0.1,1.3,0.1,1.9c0.1,1.2,0.1,2.4,0.1,3.7
		c0,0.3,0.4,0.6,0.4,0.9c0.2,1,0.2,2.2,0.2,3.4c0,0.2,0,0.4,0.1,0.6c0.1,0,0.2,0,0.3,0c0.1-1.6,0.2-3.3,0.3-4.9c0.1,0,0.1,0,0.2,0
		c0,0.8,0.1,1.7,0.1,2.5c0.1,2.5,0.3,5,0,7.49c-0.3,3.1-2.9,5.4-6,5.9c-2.5,0.4-4.8-0.1-6.8-1.8c-1.5-1.3-2.3-3-2.4-5
		c0-1.4,0.1-2.7,0.3-4.1c0.1-1.4,0.2-2.8,0.4-4.2C32.68,10.59,32.78,10.59,32.78,10.59z M39.67,24.98c1.4,0,2.4-0.3,3.3-1
		c2.3-1.7,2.8-4.1,2.4-6.7c-0.6-3.9-4.9-6-8.39-4.2c-2,1-2.9,2.8-3.1,5C33.48,21.98,36.17,25.08,39.67,24.98z"/>
	<path class="st2" d="M112.02,25.18c1.9,0,2.1-1.2,2.2-2.6c0.4-3.5,0.8-7.09,1.2-10.59c0.1-0.9,0.2-1.8,0.5-2.7
		c2.3,4.4,4.2,8.79,6.4,13.39c2.1-4.6,4.1-8.99,6.1-13.39c0.1,0,0.2,0,0.3,0c0.1,0.4,0.2,0.8,0.2,1.3c0.5,4.1,1,8.19,1.5,12.39
		c0.2,1.7,0.3,1.8,2.1,2.3c-0.3,0.4-4.4,0.4-5.1,0c0.2-0.1,0.3-0.1,0.5-0.1c0.6-0.1,0.9-0.4,0.8-1c-0.3-3.5-0.6-6.99-1-10.49
		c0,0,0-0.1-0.1-0.2c-1.8,4.2-3.7,8.19-5.5,12.49c-1.9-4.1-3.7-8.09-5.6-12.09h-0.1c-0.1,1-0.2,2-0.3,3c-0.2,2.2-0.4,4.5-0.6,6.7
		c-0.1,1.3-0.1,1.3,1.1,1.7C116.22,25.58,112.72,25.68,112.02,25.18z"/>
	<path class="st0" d="M86.44,15.09c0,2.9,0,5.8,0,8.79c0,0.9,0.4,1.2,1.3,1.3c0.1,0,0.2,0.1,0.3,0.1c-0.4,0.4-3.8,0.5-4.4,0.1
		c0,0,0-0.1,0.1-0.1c1.4-0.3,1.5-0.4,1.5-1.9c0-3.2,0-6.3,0-9.49c0-0.8-0.1-1.5-0.1-2.5c0.3,0.3,0.6,0.4,0.8,0.6
		c3.5,3.3,6.99,6.6,10.49,9.89c0.1,0.1,0.3,0.2,0.4,0.3h0.1c0,0,0-0.1-0.1-0.1c0-2.9,0-5.8,0-8.59c0-0.8-0.3-1.2-1.1-1.3
		c-0.1,0-0.3-0.1-0.5-0.1c0.5-0.4,3.8-0.4,4.4-0.1v0.1c-1.5,0.4-1.5,0.4-1.5,2c0,3.3,0,6.6,0,9.79c0,0.6,0.1,1.2,0.2,2
		c-0.4-0.3-0.6-0.4-0.8-0.6c-3.4-3.3-6.89-6.5-10.29-9.79C86.94,15.39,86.74,15.19,86.44,15.09c0-0.1,0-0.1,0-0.1V15.09z"/>
	<path class="st3" d="M190.16,22.38c0-1.4,0-2.6,0-3.8c0-1.5,0-2.9,0-4.4c0-1.7,0-1.7-1.6-2.2c0.3-0.4,3.6-0.4,4.5,0
		c-0.3,0.1-0.4,0.1-0.6,0.1c-0.8,0.1-1.2,0.5-1.2,1.3c0.1,4,0.1,7.89,0.2,11.89c0,0.1-0.1,0.3-0.1,0.5
		c-3.9-3.7-7.79-7.39-11.69-11.09c0,0.3-0.1,0.4-0.1,0.6c0,2.5,0,5.1,0,7.59c0,1.6,0.1,1.8,1.6,2.1c-0.3,0.4-3.7,0.4-4.3,0.1
		c0,0,0-0.1,0.1-0.1c1.4-0.4,1.5-0.4,1.5-2c0-3.1,0-6.3,0-9.39c0-0.7-0.1-1.5-0.1-2.2c0.1,0,0.1-0.1,0.2-0.1
		C182.37,15.09,186.16,18.69,190.16,22.38z"/>
	<path class="st2" d="M254.01,18.29c0-1.7,0-3.3,0-4.9c0-0.7-0.5-1.1-1.1-1.2c-0.1,0-0.3-0.1-0.5-0.1c0.5-0.4,4.3-0.4,4.8,0
		c-0.3,0.1-0.5,0.1-0.7,0.2c-0.6,0.2-0.9,0.5-0.9,1.1c0,3.5,0,6.99,0,10.49c0,0.6,0.4,1,1,1.2c0.2,0.1,0.4,0.1,0.6,0.1
		c-0.5,0.4-4.3,0.4-4.8,0c0.2,0,0.3-0.1,0.4-0.1c0.8-0.2,1.2-0.5,1.2-1.4c0-1.4,0-2.7,0-4.1c0-0.2-0.3-0.5-0.4-0.5
		c-2.5,0-5.1,0-7.69,0c0,0.7,0,1.4,0,2.1c0,0.8,0,1.6,0,2.4c0,1.1,0.2,1.3,1.3,1.5c0.1,0,0.2,0.1,0.3,0.1c-0.4,0.4-4.2,0.5-4.8,0
		c0.2-0.1,0.3-0.1,0.5-0.1c0.8-0.2,1.1-0.6,1.1-1.4c0-3.3,0-6.7,0-9.99c0-1-0.2-1.3-1.3-1.5c-0.1,0-0.2-0.1-0.3-0.1
		c0.4-0.4,4.2-0.4,4.9,0c-1.9,0-1.7,1.3-1.7,2.5s0,2.4,0,3.7C248.62,18.29,251.22,18.29,254.01,18.29z"/>
	<path class="st0" d="M22.48,19.39c1.2,1.4,2.3,2.8,3.5,4.3c0.6,0.8,1.4,1.4,2.4,1.5c0.1,0,0.1,0.1,0.3,0.2
		c-0.3,0.1-0.4,0.2-0.6,0.2c-1.8,0-3.4-0.5-4.5-2.1c-0.5-0.6-0.9-1.3-1.4-1.9c-0.8-1.2-1.5-2.4-3.1-2.7c0-0.1,0-0.1,0-0.2
		c0.6,0,1.2-0.2,1.8-0.1c2.1,0.1,3.1-1.4,2.9-3.5c-0.1-1.2-1-2.1-2.5-2.3c-0.9-0.1-1.9,0-3,0c0,0.3,0,0.5,0,0.8c0,3.2,0,6.4,0,9.59
		c0,1.6,0.1,1.8,1.6,2.2c-0.3,0.4-4.1,0.5-4.7,0.1v-0.1c1.4-0.4,1.5-0.5,1.5-2c0-2.9,0-5.8,0-8.79c0-1.8,0-1.8-1.7-2.4
		c0.3-0.1,0.4-0.2,0.6-0.2c2.1,0,4.2,0,6.3,0.1c1.6,0.1,2.9,0.9,3.4,2.6c0.5,1.5,0,2.9-1.2,3.9C23.68,18.89,22.98,19.09,22.48,19.39
		z"/>
	<path class="st0" d="M235.93,16.19c-0.1-0.2-0.2-0.4-0.2-0.5c-0.7-2-2.1-3-4.2-3.2c-1.6-0.2-3.1-0.1-4.5,0.9
		c-1.8,1.4-2.3,3.3-2.3,5.4c0,2,0.5,3.8,2.2,5.1c2.1,1.7,6.2,1.4,7.99-0.6c0.1-0.2,0.2-0.4,0.3-0.6c0.1-0.7,0.1-1.4,0.1-2.1
		c0-1-0.1-1.1-1.1-1.3c-0.1,0-0.2-0.1-0.3-0.1c0.4-0.4,3.7-0.4,4.2-0.1c0,0,0,0.1-0.1,0.1c-1.2,0.3-1.2,0.3-1.2,1.6
		c0,0.2,0,0.4,0,0.6c0.3,1.3-0.5,2.1-1.4,2.8c-3.3,2.4-8.29,2.1-10.79-0.7c-2-2.3-2.2-4.9-1.3-7.69c0.9-2.6,3-3.9,5.7-4.3
		c2.1-0.3,4.1,0,6,1c0.5,0.2,0.7,0.5,0.7,1c0.1,0.9,0.2,1.7,0.4,2.6C236.13,16.19,236.03,16.19,235.93,16.19z"/>
	<path class="st0" d="M60.56,12.69c-2.3,0-4.5,0-6.6,0c-0.5,0-0.8,0.3-0.9,0.9c0,0.2-0.1,0.4-0.1,0.6c-0.1,0-0.1,0-0.2,0
		c0-0.9,0-1.7,0-2.6c3.4,0.4,6.8,0.3,10.39,0.1c-2.9,4.4-5.7,8.59-8.59,12.99c0.5,0,0.8,0,1,0c1.6,0,3.2,0,4.8,0
		c1.7,0.1,2.8-0.6,3.5-2.1c0.1-0.1,0.1-0.2,0.2-0.4c0,0,0.1,0,0.2,0c0,0.2,0,0.3,0,0.4c-0.3,0.9-0.6,1.7-1,2.6
		c-0.1,0.2-0.3,0.4-0.5,0.4c-3.4,0-6.8,0-10.29,0c-0.1,0-0.2-0.1-0.4-0.2C54.96,21.18,57.76,16.99,60.56,12.69z"/>
	<path class="st3" d="M76.94,16.99c0.3,1.2,0.2,2.2,0.2,3.3c-0.1,0-0.2,0-0.3,0c-0.1-0.2-0.1-0.5-0.2-0.6c-0.1-0.2-0.4-0.5-0.6-0.5
		c-1.3,0-2.6,0-3.9,0c0,1.8,0,3.6,0,5.6c1.6-0.1,3.2-0.1,4.8-0.3c0.9-0.1,1.4-0.8,1.8-1.6c0.1-0.2,0.3-0.5,0.4-0.7
		c0.1,0,0.1,0,0.2,0.1c0,0.1,0,0.3,0,0.4c-0.3,0.8-0.6,1.7-1,2.5c-0.1,0.2-0.4,0.5-0.7,0.5c-2.7,0-5.5,0-8.19,0
		c-0.2,0-0.4-0.1-0.5-0.3c0.1,0,0.2-0.1,0.4-0.1c0.9-0.2,1.2-0.5,1.2-1.5c0-3.3,0-6.7,0-9.99c0-1-0.3-1.3-1.3-1.5
		c-0.1,0-0.2-0.1-0.3-0.2c0.2,0,0.5-0.1,0.7-0.1c1.6,0,3.2,0,4.8,0c1.2,0,2.4-0.1,3.7-0.2c0,0.8,0,1.7,0,2.7
		c-0.2-0.2-0.3-0.2-0.3-0.3c-0.2-1.2-0.4-1.3-1.6-1.3c-1.3,0-2.7,0-4.1,0c0,0.4,0,0.7,0,1c0,1.3,0,2.6,0,3.9c0,0.5,0.1,0.8,0.7,0.7
		c0.7-0.1,1.3,0,2,0C75.74,18.29,76.74,18.49,76.94,16.99z"/>
	<path class="st4" d="M155.89,21.38c0.5-0.4,0.9-0.7,1.2-1c0,0-0.3-0.4-0.5-0.6c0.1-0.2,0.4-0.4,0.4-0.6c-0.4-2.9,1.6-6.4,5.6-7.29
		c0.9-0.2,1.8-0.2,2.8-0.2c-2.5,0.3-4.3,1.5-5.6,3.5c-1,1.4-1.2,3.1-0.9,4.7c0.3,2.2,1.4,4,3.6,4.8c2,0.8,4,1,6.1,0.1
		c0,0.1,0,0.1,0,0.2c-0.4,0.2-0.8,0.4-1.2,0.5c-0.8,0.1-1,0.6-0.9,1.3c0,0.2,0,0.3-0.1,0.5c-0.1-0.2-0.1-0.4-0.2-0.5
		c-0.1-0.3-0.2-0.8-0.4-0.8c-0.5,0-1,0.1-1.4,0.2c-0.1,0-0.2,0.4-0.3,0.6c-0.1,1.4-0.1,2.7-0.2,4.1c0,0.2-0.1,0.5-0.1,0.7
		c-0.1,0-0.1,0-0.2,0c-0.1-1.5-0.1-2.9-0.2-4.4c0-0.5-0.1-1-0.6-1.3c-0.6-0.3-0.8-0.2-1,0.5c-0.1,0.2-0.2,0.4-0.3,0.6
		c0.1-1.1-0.3-1.7-1.2-2.3c-0.8-0.4-1.5-1.2-2-1.9C157.58,21.88,157.19,20.98,155.89,21.38z"/>
	<path class="st5" d="M151.99,16.39c0,0.3-0.1,0.8-0.1,1.2c0.1,0,0.1,0.1,0.2,0.1c0.5-0.2,1.1-0.4,1.6-0.6c0,0,0,0.1,0.1,0.1
		c-0.4,0.4-1,0.7-1.3,1.2c-0.3,0.3-0.4,0.7-0.5,1.1c-0.3,2.2-1.3,3.9-3.1,5c-0.9,0.6-1.5,1.2-1.6,2.3c0,0.1-0.1,0.2-0.2,0.4
		c-0.2-0.5-0.3-1-0.4-1.4c-0.8,0.3-1.1,1-1,2c0.1,0.7,0.1,1.3,0.1,2c-0.1,0-0.1,0-0.2,0c-0.1-0.8-0.2-1.6-0.2-2.3
		c0-0.4-0.1-0.8-0.2-1.2c0-0.2-0.3-0.3-0.4-0.4c-0.1,0.1-0.3,0.3-0.3,0.4c-0.1,0.3-0.1,0.5-0.3,0.8c0-0.1-0.1-0.2-0.1-0.3
		c0.1-0.8-0.4-1-1.1-1.1c-1.5-0.2-2.9-0.8-4-1.8c3.2,1.6,6.3,1.9,9.19-0.4c1.2-1,1.8-2.4,1.9-4c0.3-4.3-2.3-7.49-6.3-7.79
		c1.1-0.4,2-0.1,2.8,0.1c2.2,0.6,3.8,1.9,4.8,4C151.59,16.09,151.79,16.19,151.99,16.39z"/>
	<path class="st0" d="M202.65,12.09c-0.3,0.1-0.5,0.1-0.7,0.2c-0.6,0.2-1,0.5-1,1.2c0,3.6,0,7.09,0,10.69c0,0.4,0.2,0.5,0.6,0.5
		c1,0,2,0,3.1,0c1.4,0,2.4-0.6,3-1.9c0.1-0.2,0.3-0.4,0.4-0.7c0.1,0,0.1,0.1,0.2,0.1c-0.4,1-0.8,2.1-1.2,3.1c0,0.1-0.3,0.2-0.5,0.2
		c-2.8,0-5.7,0-8.49,0c-0.1,0-0.2-0.1-0.4-0.3c0.2-0.1,0.4-0.1,0.6-0.2c0.6-0.2,1-0.5,1-1.2c0-3.5,0-6.89,0-10.39
		c0-0.6-0.3-1-0.9-1.2c-0.2-0.1-0.4-0.1-0.7-0.2C198.16,11.69,201.95,11.69,202.65,12.09z"/>
	<path class="st0" d="M217.94,25.28c-0.6,0.4-4.8,0.4-5.3,0.1c0,0,0-0.1,0.1-0.1c1.7-0.4,1.7-0.4,1.7-2.2c0-3,0-6,0-8.99
		c0-1.3-0.2-1.5-1.5-1.8c-0.1,0-0.2-0.1-0.3-0.1c0.4-0.4,4.5-0.4,5.4,0c-0.4,0.1-0.6,0.1-0.8,0.2c-0.9,0.2-1.2,0.6-1.2,1.5
		c0,3.2,0,6.5,0,9.69c0,1.3,0.3,1.6,1.5,1.8C217.74,25.18,217.74,25.18,217.94,25.28z"/>
	<path class="st6" d="M86.44,15.09v-0.1C86.44,14.99,86.44,14.99,86.44,15.09C86.54,14.99,86.44,15.09,86.44,15.09z"/>
	<path class="st6" d="M96.93,22.18L96.93,22.18C96.93,22.28,96.93,22.18,96.93,22.18C96.83,22.18,96.93,22.18,96.93,22.18z"/>
</g>
</svg>
