<?xml version="1.0" encoding="utf-8"?>
<!-- Generator: Adobe Illustrator 23.0.1, SVG Export Plug-In . SVG Version: 6.00 Build 0)  -->
<svg version="1.1" id="Layer_1" xmlns="http://www.w3.org/2000/svg" xmlns:xlink="http://www.w3.org/1999/xlink" x="0px" y="0px"
	 viewBox="0 0 192 108" style="enable-background:new 0 0 192 108;" xml:space="preserve">
<path d="M180.43,53.32c-0.07,0.03-0.15,0.05-0.23,0.08c-0.11-0.8-0.25-0.92-1.04-0.92c-0.65,0-1.3,0-2.02,0c0,0.18,0,0.35,0,0.51
	c0,1.88,0,3.77,0,5.65c0,1.04,0,1.04,0.91,1.44c-0.93,0-1.86,0-2.8,0c0.02-0.06,0.02-0.1,0.03-0.11c0.85-0.21,0.9-0.28,0.9-1.19
	c0-1.93,0-3.85,0-5.78c0-0.15,0-0.31,0-0.5c-0.85,0-1.68-0.03-2.51,0.02c-0.17,0.01-0.34,0.32-0.48,0.51
	c-0.06,0.09-0.05,0.23-0.15,0.35c-0.14-0.51-0.09-1.03-0.11-1.55c2.18,0.27,4.32,0.14,6.46,0.11c0.34,0,0.69-0.06,1.03-0.09
	C180.43,52.36,180.43,52.84,180.43,53.32z"/>
<path d="M41.29,51.06c0.05-0.3,0.09-0.59,0.14-0.89c0.03,0,0.05,0,0.08,0c0.02,0.26,0.03,0.52,0.07,0.78
	c0.04,0.28,0.06,0.62,0.42,0.64c0.34,0.02,0.41-0.31,0.45-0.57c0.13-0.81,0.23-1.62,0.36-2.51c0.05,0.15,0.08,0.21,0.09,0.29
	c0.07,0.87,0.12,1.75,0.2,2.62c0.03,0.29,0.14,0.58,0.22,0.86c0.02,0.05,0.11,0.11,0.16,0.11c0.05,0,0.12-0.07,0.14-0.13
	c0.04-0.12,0.06-0.25,0.07-0.37c0.15-1.44,0.29-2.88,0.44-4.32c0-0.03,0.02-0.05,0.06-0.13c0.07,0.7,0.14,1.35,0.18,1.99
	c0.03,0.43,0,0.86,0,1.29c0,0.08-0.01,0.21,0.04,0.24c0.31,0.22,0.19,0.52,0.19,0.81c0.01,0.63,0.03,1.27,0.05,1.9
	c0,0.05,0.06,0.09,0.15,0.23c0.27-1.03,0.04-2.02,0.35-2.95c0.04,0.5,0.11,1,0.13,1.5c0.05,1.21,0.09,2.43,0.1,3.64
	c0.03,2.33-1.81,4.11-4.26,4.24c-1.36,0.07-2.58-0.28-3.59-1.22c-0.87-0.81-1.29-1.82-1.28-2.99c0-0.79,0.09-1.58,0.16-2.37
	c0.06-0.78,0.14-1.56,0.31-2.36c0.06,0.59,0.13,1.18,0.19,1.77c0.06,0,0.11,0.01,0.17,0.01c0.1-0.7,0.19-1.4,0.29-2.11
	c0.03,0,0.06,0,0.1-0.01c0.03,0.41,0.06,0.81,0.09,1.22c0.05,0,0.1,0,0.16-0.01c0-1.15,0-2.29,0-3.44c0.04,0,0.08,0,0.12,0
	c0.1,0.99,0.2,1.98,0.29,2.97c0.02,0,0.04,0.01,0.06,0.01c0.12-0.77,0.24-1.54,0.36-2.32c0.06,0.01,0.12,0.01,0.18,0.02
	c0,0.76,0,1.51,0,2.27c0.04,0,0.08,0.01,0.12,0.01c0.36-0.59,0.47-1.24,0.53-1.91c0.13-1.59,0.27-3.17,0.41-4.76
	c0.04,0,0.09,0,0.13,0c0.11,1.68,0.21,3.37,0.33,5.17c0.07-0.1,0.11-0.16,0.17-0.26c0,0.39,0,0.78,0,1.16
	c0.06,0.01,0.11,0.02,0.17,0.03c0.12-0.66,0.25-1.33,0.37-1.99c0.01,0,0.03-0.01,0.04-0.01c0.06,0.62,0.13,1.23,0.19,1.85
	C41.22,51.06,41.25,51.06,41.29,51.06z M44.32,56.08c-0.04-0.31-0.05-0.62-0.12-0.92c-0.3-1.32-1.05-2.29-2.38-2.68
	c-1.3-0.38-2.48-0.11-3.44,0.85c-0.9,0.91-1.16,2.05-1.03,3.29c0.24,2.18,2.04,3.55,4.14,3.17C43.16,59.48,44.29,57.98,44.32,56.08z
	"/>
<path d="M93.87,50.5c0.07,0.56,0.15,1.13,0.21,1.69c0.27,2.22,0.53,4.44,0.8,6.66c0.1,0.81,0.28,0.97,1.09,1.09
	c0.05,0.01,0.1,0.04,0.15,0.07c-0.28,0.19-2.68,0.2-2.99,0.02c0.03-0.03,0.06-0.07,0.09-0.07c0.57-0.13,0.65-0.24,0.59-0.81
	c-0.14-1.59-0.28-3.18-0.43-4.78c-0.04-0.46-0.09-0.91-0.22-1.38c-1.09,2.44-2.18,4.89-3.3,7.41c-1.12-2.42-2.22-4.81-3.32-7.19
	c-0.03,0-0.05,0-0.08,0c-0.06,0.58-0.12,1.15-0.17,1.73c-0.12,1.41-0.25,2.82-0.36,4.23c-0.05,0.58,0.01,0.66,0.6,0.79
	c0.03,0.01,0.06,0.05,0.15,0.14c-0.95,0-1.82,0-2.73,0c0.04-0.07,0.04-0.1,0.05-0.1c0.92-0.05,1.14-0.64,1.22-1.45
	c0.26-2.56,0.59-5.11,0.89-7.67c0.01-0.12,0.04-0.24,0.07-0.36c0.05-0.01,0.1-0.03,0.15-0.04c1.23,2.65,2.46,5.3,3.73,8.04
	c1.24-2.73,2.44-5.38,3.65-8.04C93.76,50.48,93.81,50.49,93.87,50.5z"/>
<path d="M74.95,58.33c0-0.34,0-0.57,0-0.81c0-1.33,0-2.66,0-3.99c0-1.06,0-1.06-0.95-1.36c0.21-0.18,2.2-0.21,2.6-0.02
	c-0.05,0.04-0.09,0.08-0.13,0.09c-0.75,0.14-0.83,0.24-0.83,1c0.01,2.01,0.01,4.02,0.02,6.03c0,0.35,0.05,0.7,0.08,1.04
	c-0.04,0.03-0.07,0.06-0.11,0.09c-2.31-2.18-4.61-4.37-6.99-6.62c0,0.45,0,0.79,0,1.14c0,1.33,0,2.66,0,3.99
	c0,0.75,0.11,0.88,0.86,1.03c0.04,0.01,0.08,0.06,0.22,0.16c-0.97,0-1.83,0-2.81,0c0.14-0.1,0.18-0.15,0.22-0.16
	c0.77-0.15,0.83-0.22,0.83-1c0-1.88,0-3.77,0-5.65c0-0.48-0.05-0.95-0.02-1.48C70.28,53.91,72.56,56.1,74.95,58.33z"/>
<path d="M124.18,53.78c0,1.86,0,3.6,0,5.34c0,0.51,0.22,0.74,0.73,0.81c0.08,0.01,0.15,0.03,0.22,0.15c-0.85,0-1.71,0-2.58,0
	c0.02-0.07,0.03-0.09,0.03-0.09c0.91-0.3,0.91-0.3,0.91-1.33c0-1.81,0.01-3.62,0-5.44c0-0.46-0.05-0.92-0.08-1.38
	c0.04-0.03,0.07-0.05,0.11-0.08c2.29,2.16,4.59,4.32,6.96,6.55c0-0.25,0-0.39,0-0.54c0-1.44,0-2.89,0-4.33c0-1.01,0-1.02-0.94-1.28
	c0.19-0.19,2.18-0.22,2.6-0.03c-0.08,0.04-0.13,0.08-0.19,0.09c-0.65,0.11-0.8,0.27-0.8,0.91c0.02,2.22,0.05,4.44,0.07,6.66
	c0,0.17,0.02,0.35,0.03,0.52c-0.04,0.02-0.07,0.04-0.11,0.06C128.85,58.2,126.54,56.02,124.18,53.78z"/>
<path d="M168.51,55.86c0-1,0.01-1.96-0.01-2.92c-0.01-0.42-0.2-0.56-0.9-0.77c0.2-0.19,2.43-0.22,2.77-0.03c0,0.01,0,0.03-0.01,0.04
	c-0.91,0.35-0.91,0.35-0.91,1.36c0,1.69,0,3.37,0,5.06c0,1.07,0,1.07,0.92,1.5c-0.92,0-1.85,0-2.86,0c0.1-0.08,0.13-0.13,0.17-0.14
	c0.69-0.15,0.82-0.3,0.82-0.99c0-0.83,0-1.67,0-2.54c-1.63,0-3.23,0-4.86,0c0,0.97-0.01,1.93,0.01,2.89
	c0.01,0.34,0.26,0.52,0.56,0.61c0.11,0.03,0.23,0.05,0.34,0.07c0,0.04-0.01,0.07-0.01,0.11c-0.92,0-1.85,0-2.78,0
	c0.02-0.06,0.03-0.11,0.04-0.11c0.84-0.23,0.87-0.28,0.87-1.17c0-1.86,0-3.71,0-5.57c0-0.75-0.08-0.84-0.83-1.02
	c-0.03-0.01-0.06-0.05-0.16-0.14c1,0,1.92,0,2.85,0c0.04,0.04,0.07,0.08,0.11,0.12c-1.16,0.03-1.02,0.81-1.02,1.52
	c0,0.71,0,1.41,0,2.14C165.26,55.86,166.86,55.86,168.51,55.86z"/>
<path d="M28.51,56.06c0.41-0.02,0.83-0.04,1.24-0.07c0.98-0.07,1.54-0.67,1.56-1.65c0.02-1.03-0.5-1.68-1.48-1.77
	c-0.56-0.05-1.13-0.01-1.75-0.01c0,0.14,0,0.29,0,0.43c0,1.97,0,3.93,0,5.9c0,0.77,0.11,0.9,0.85,1.05
	c0.03,0.01,0.06,0.05,0.17,0.14c-1.02,0-1.94,0-2.95,0c0.1-0.08,0.13-0.14,0.17-0.14c0.7-0.14,0.83-0.28,0.83-0.98
	c0-1.91,0-3.82,0-5.73c0-0.75-0.1-0.86-0.84-1.01c-0.03-0.01-0.06-0.05-0.18-0.14c0.19-0.03,0.29-0.06,0.4-0.06
	c1.08,0,2.15-0.01,3.23,0c0.29,0,0.59,0.05,0.88,0.11c1.06,0.25,1.68,0.97,1.74,1.98c0.06,0.99-0.58,1.9-1.55,2.25
	c-0.12,0.04-0.23,0.08-0.33,0.11c0.62,0.77,1.22,1.53,1.85,2.28c0.49,0.58,0.97,1.19,1.86,1.21c-0.01,0.03-0.02,0.07-0.04,0.1
	c-0.06,0.03-0.11,0.08-0.17,0.08c-1.04,0.06-1.98-0.16-2.67-1.01c-0.39-0.48-0.75-0.99-1.11-1.5c-0.45-0.64-0.89-1.28-1.74-1.45
	C28.5,56.14,28.5,56.1,28.51,56.06z"/>
<path d="M157.8,54.61c-0.05-0.07-0.11-0.14-0.14-0.22c-0.42-1.44-1.48-2-2.88-2.06c-2.34-0.11-3.85,1.46-3.71,3.86
	c0.03,0.53,0.11,1.08,0.29,1.57c0.58,1.64,2.21,2.41,4.09,1.98c0.25-0.06,0.49-0.14,0.72-0.23c0.8-0.33,1.41-0.79,1.2-1.8
	c-0.02-0.09,0-0.2,0-0.3c0-0.78,0-0.78-0.75-0.97c-0.02,0-0.03-0.04-0.08-0.13c0.87,0,1.71,0,2.57,0c-0.04,0.07-0.04,0.11-0.06,0.12
	c-0.73,0.22-0.73,0.22-0.73,0.99c0,0.11-0.02,0.23,0,0.34c0.15,0.74-0.23,1.2-0.79,1.58c-1.72,1.18-3.55,1.34-5.43,0.46
	c-1.5-0.7-2.29-2.37-2.09-4.16c0.25-2.31,1.77-3.71,4.13-3.8c1.07-0.04,2.11,0.11,3.09,0.6c0.26,0.13,0.42,0.28,0.45,0.6
	c0.05,0.52,0.15,1.03,0.23,1.54C157.88,54.59,157.84,54.6,157.8,54.61z"/>
<path d="M55.56,58.2c-0.23,0.61-0.46,1.23-0.71,1.83c-0.02,0.06-0.16,0.11-0.25,0.11c-2.05,0-4.1,0-6.16,0
	c-0.04,0-0.07-0.03-0.19-0.08c1.66-2.51,3.31-4.99,5.01-7.56c-0.43,0-0.79,0-1.15,0c-0.85,0-1.7,0-2.55,0
	c-0.6,0-0.72,0.12-0.81,0.72c-0.01,0.06-0.04,0.12-0.16,0.16c0-0.51,0-1.02,0-1.53c2,0.24,4.03,0.19,6.18,0.03
	c-1.72,2.6-3.4,5.15-5.13,7.77c0.59,0,1.11,0,1.62,0c0.64,0,1.27-0.01,1.91,0c0.94,0.01,1.64-0.36,2.04-1.24
	c0.05-0.1,0.12-0.19,0.19-0.29C55.46,58.16,55.51,58.18,55.56,58.2z"/>
<path d="M17.34,50.81c1.84-0.26,3.71,0.08,5.56-0.35c0,0.53,0,1.04,0,1.57c-0.07-0.02-0.12-0.02-0.12-0.03
	c-0.27-0.83-0.27-0.83-1.15-0.83c-0.75,0-1.5,0-2.28,0c0,1.35,0,2.67,0,4.03c0.77,0,1.55,0.03,2.31-0.02
	c0.17-0.01,0.33-0.29,0.46-0.48c0.06-0.08,0.05-0.22,0.07-0.34c0.04,0,0.07,0.01,0.11,0.01c0,0.72,0,1.44,0,2.19
	c-0.07-0.04-0.12-0.05-0.13-0.08c-0.2-0.73-0.26-0.78-1.01-0.78c-0.59,0-1.19,0-1.83,0c-0.01,0.15-0.02,0.29-0.02,0.42
	c0,0.84,0,1.67,0,2.51c0,0.99,0.09,1.12,1,1.35c-0.19,0.2-2.64,0.23-3.07-0.03c1.22-0.01,1.11-0.83,1.11-1.59
	c-0.01-2.14,0-4.27,0-6.41c0-0.76-0.12-0.91-0.89-1.07C17.42,50.89,17.38,50.84,17.34,50.81z"/>
<path d="M60.13,52.51c0,1.14,0,2.21,0,3.32c0.79,0,1.56,0.02,2.33-0.02c0.14-0.01,0.28-0.23,0.39-0.38
	c0.06-0.09,0.07-0.22,0.11-0.37c0.22,0.35,0.21,1.73-0.01,2.03c-0.04-0.14-0.03-0.28-0.1-0.37c-0.12-0.15-0.28-0.37-0.44-0.37
	c-0.74-0.04-1.49-0.02-2.26-0.02c0,1.11,0,2.18,0,3.33c0.99-0.07,1.99,0.15,2.96-0.18c0.5-0.17,0.79-0.57,1.02-1.03
	c0.06-0.12,0.16-0.23,0.23-0.34c0.04,0.02,0.09,0.05,0.13,0.07c-0.24,0.62-0.48,1.24-0.73,1.86c-0.02,0.06-0.17,0.09-0.25,0.09
	c-1.68,0.01-3.37,0-5.05,0c-0.07,0-0.15-0.04-0.28-0.07c0.09-0.07,0.13-0.12,0.17-0.13c0.71-0.13,0.83-0.27,0.83-0.97
	c0-1.84,0-3.68,0-5.52c0-1.02,0-1.02-0.92-1.29c0-0.01-0.01-0.03-0.01-0.04c0-0.01,0-0.04,0.01-0.04c0.03-0.02,0.07-0.06,0.11-0.06
	c1.76-0.03,3.53-0.05,5.3-0.07c0,0.41,0,0.92,0,1.47c-0.09-0.04-0.13-0.05-0.13-0.07c-0.16-0.79-0.25-0.86-1.07-0.86
	C61.7,52.51,60.94,52.51,60.13,52.51z"/>
<path d="M118.05,59.55c-0.4,0.18-0.78,0.41-1.19,0.52c-0.46,0.12-0.57,0.4-0.57,0.8c0,0.08,0,0.16-0.06,0.25
	c-0.03-0.1-0.06-0.19-0.1-0.29c-0.07-0.17-0.13-0.48-0.21-0.49c-0.28-0.02-0.58,0.04-0.86,0.13c-0.08,0.03-0.15,0.22-0.16,0.35
	c-0.06,0.83-0.1,1.66-0.15,2.49c-0.01,0.11-0.02,0.22-0.13,0.34c-0.04-0.82-0.08-1.64-0.11-2.47c-0.02-0.37,0-0.75-0.43-0.92
	c-0.35-0.14-0.49-0.07-0.57,0.28c-0.03,0.12-0.08,0.23-0.2,0.34c0-0.09,0-0.17,0-0.26c-0.02-0.41-0.17-0.69-0.56-0.95
	c-0.55-0.37-1.07-0.85-1.45-1.39c-0.32-0.47-0.62-0.74-1.21-0.61c0-0.04-0.01-0.07-0.01-0.11c0.12-0.05,0.26-0.09,0.36-0.16
	c0.12-0.09,0.27-0.21,0.28-0.32c0.01-0.11-0.15-0.23-0.24-0.35c0.32-0.08,0.18-0.36,0.18-0.64c-0.01-1.24,0.44-2.29,1.38-3.12
	c0.98-0.86,2.14-1.16,3.43-1.11c-1.41,0.23-2.49,0.95-3.2,2.17c-0.71,1.23-0.69,2.52-0.16,3.84c0.73,1.82,3.76,2.83,5.88,1.6
	C118.01,59.49,118.03,59.52,118.05,59.55z"/>
<path d="M103.92,62.64c-0.05-0.46-0.1-0.91-0.15-1.37c-0.03-0.24-0.03-0.48-0.1-0.71c-0.03-0.09-0.18-0.15-0.28-0.22
	c-0.06,0.09-0.14,0.17-0.17,0.27c-0.04,0.16-0.04,0.32-0.14,0.49c-0.01-0.07-0.04-0.15-0.04-0.22c-0.01-0.37-0.19-0.55-0.57-0.59
	c-1.08-0.12-2-0.57-2.77-1.33c-0.05-0.05-0.1-0.1-0.14-0.16c-0.01-0.02-0.01-0.05-0.03-0.13c0.19,0.16,0.34,0.3,0.49,0.42
	c1.42,1.18,3.76,0.99,4.97,0.24c1.67-1.03,2.18-3.54,1.1-5.36c-0.2-0.34-0.43-0.67-0.71-0.95c-0.66-0.65-1.41-1.13-2.45-1.05
	c1.49-0.56,3.68,0.75,4.58,2.7c0.09-0.02,0.19-0.05,0.21-0.05c-0.03,0.28-0.06,0.55-0.11,0.96c0.46-0.17,0.78-0.3,1.22-0.46
	c-0.38,0.36-0.68,0.61-0.95,0.91c-0.1,0.11-0.16,0.3-0.18,0.46c-0.13,1.34-0.75,2.39-1.89,3.11c-0.53,0.34-0.95,0.71-0.93,1.39
	c0,0.04-0.04,0.09-0.09,0.17c-0.09-0.3-0.16-0.56-0.23-0.82c-0.52,0.14-0.7,0.54-0.59,1.19c0.02,0.12,0.04,0.25,0.05,0.38
	c0.01,0.25,0,0.51,0,0.76C103.99,62.64,103.96,62.64,103.92,62.64z"/>
<path d="M134.98,60.08C135,60.02,135,60,135.01,60c0.91-0.33,0.91-0.33,0.91-1.34c0-1.81,0-3.62,0-5.43c0-0.71-0.11-0.84-0.81-0.99
	c-0.05-0.01-0.08-0.05-0.11-0.15c0.94,0,1.88,0,2.84,0c-0.02,0.07-0.03,0.11-0.04,0.12c-0.86,0.23-0.92,0.31-0.92,1.22
	c0,1.91,0,3.82,0,5.73c0,0.15,0,0.31,0,0.55c0.94-0.04,1.84-0.04,2.73-0.14c0.63-0.07,0.99-0.55,1.27-1.08
	c0.06-0.12,0.17-0.23,0.25-0.35c0.04,0.02,0.08,0.05,0.12,0.07c-0.23,0.6-0.45,1.2-0.7,1.79c-0.03,0.08-0.2,0.15-0.31,0.15
	c-1.67,0.01-3.34,0.01-5.01,0C135.14,60.15,135.06,60.1,134.98,60.08z"/>
<path d="M146.95,60.1c-1.02,0-2.03,0-3.05,0c-0.01-0.03-0.01-0.07-0.02-0.1c0.09-0.02,0.18-0.05,0.27-0.06
	c0.58-0.09,0.81-0.34,0.81-0.93c0-1.9,0-3.79,0-5.69c0-0.78-0.16-0.97-0.93-1.07c-0.05-0.01-0.1-0.03-0.16-0.06
	c0.24-0.19,2.68-0.22,3.17-0.02c-0.18,0.04-0.27,0.06-0.36,0.08c-0.56,0.09-0.78,0.34-0.78,0.91c0,1.93,0,3.85,0,5.78
	c0,0.72,0.16,0.9,0.9,1.01c0.05,0.01,0.1,0.03,0.15,0.05C146.95,60.02,146.95,60.06,146.95,60.1z"/>
<path d="M119.88,55.39c0,0.34,0,0.69,0,1.03c-0.03,0-0.06,0-0.09,0c-0.02-0.35-0.04-0.69-0.07-1.04
	C119.77,55.39,119.83,55.39,119.88,55.39z"/>
</svg>
