<svg version="1.1" id="Layer_1" xmlns="http://www.w3.org/2000/svg" x="0" y="0" width="274" height="31.58" xml:space="preserve"><style>.st0{fill:#fff}</style><path class="st0" d="M.3 9.59h5.3c1.3 0 2.7-.2 4-.2v2.5c-.1 0-.1.1-.2.1 0-.1 0-.2-.1-.3-.3-1.2-.4-1.3-1.6-1.3H3.6v6.7h3.9c.3 0 .5-.5.7-.8.1-.1.1-.4.1-.7.4.5.4 3.1.1 3.7-.1 0-.2-.1-.2-.1-.4-1.2-.4-1.3-1.8-1.3H3.9c-.4 0-.5.1-.5.5v5.1c0 .7.4 1.2 1.1 1.4.2 0 .4.1.6.1v.3H0v-.3c1.4-.1 1.8-.5 1.8-2V11.4c0-1-.3-1.4-1.3-1.7.1.19 0-.01-.2-.11zm273.7 4.6c-.3 0-.4-.1-.5-.4 0-.7-.4-1.1-1.1-1.1h-3.9v10.69c0 1.4.1 1.5 1.4 1.8.1 0 .1.1.2.1-.3.4-4 .4-4.9 0 .3-.1.5-.2.7-.2.6-.2 1-.5 1-1.1V12.99c0-.1 0-.1-.1-.2h-3.9c-.6 0-1 .4-1.1 1 0 .2-.1.3-.1.5h-.2v-2.6c3.1.5 6.2.2 9.39.2.8 0 1.7-.1 2.5-.2h.5c.11.8.11 1.6.11 2.5zM.2 25.48h.1l-.1.1v-.1zm32.58-14.89c.1 1 .2 2.1.4 3.1h.3c.2-1.2.3-2.4.5-3.6h.2c0 .7.1 1.4.1 2.1h.3v-5.9h.2c.2 1.7.4 3.5.5 5.2h.1c.2-1.4.4-2.7.6-4.1h.2v2c0 .6.1 1.3.2 1.9.7-1 .9-2.1 1-3.3.2-2.6.4-5.2.6-7.89 0 0 .1-.1.3-.1.2 2.8.4 5.7.5 8.59.1-.1.1-.3.2-.5h.1v2.2h.3c.2-1.2.4-2.3.6-3.5h.1c.1 1.1.2 2.1.3 3.2h.2l.3-1.5h.1c0 .3.1.7.1 1v.6c.2.3.5.6.7.9.2-.3.6-.5.7-.8.2-1.1.3-2.2.5-3.3 0-.3.1-.7.2-1 0 .2.1.4.1.6.1 1.4.2 2.8.3 4.1 0 .5.2 1 .3 1.5.1.3.2.4.3.4.1 0 .2-.1.2-.2.1-.2.1-.5.1-.7.2-2.4.5-4.8.7-7.09 0-.1 0-.1.2-.2 0 .6.1 1.3.1 1.9.1 1.2.1 2.4.1 3.7 0 .3.4.6.4.9.2 1 .2 2.2.2 3.4 0 .2 0 .4.1.6h.3c.1-1.6.2-3.3.3-4.9h.2c0 .8.1 1.7.1 2.5.1 2.5.3 5 0 7.49-.3 3.1-2.9 5.4-6 5.9-2.5.4-4.8-.1-6.8-1.8-1.5-1.3-2.3-3-2.4-5 0-1.4.1-2.7.3-4.1.1-1.4.2-2.8.4-4.2 0-.1.1-.1.1-.1zm6.89 14.39c1.4 0 2.4-.3 3.3-1 2.3-1.7 2.8-4.1 2.4-6.7-.6-3.9-4.9-6-8.39-4.2-2 1-2.9 2.8-3.1 5-.4 3.9 2.29 7 5.79 6.9zm72.35.2c1.9 0 2.1-1.2 2.2-2.6.4-3.5.8-7.09 1.2-10.59.1-.9.2-1.8.5-2.7 2.3 4.4 4.2 8.79 6.4 13.39 2.1-4.6 4.1-8.99 6.1-13.39h.3c.1.4.2.8.2 1.3.5 4.1 1 8.19 1.5 12.39.2 1.7.3 1.8 2.1 2.3-.3.4-4.4.4-5.1 0 .2-.1.3-.1.5-.1.6-.1.9-.4.8-1-.3-3.5-.6-6.99-1-10.49 0 0 0-.1-.1-.2-1.8 4.2-3.7 8.19-5.5 12.49-1.9-4.1-3.7-8.09-5.6-12.09h-.1l-.3 3c-.2 2.2-.4 4.5-.6 6.7-.1 1.3-.1 1.3 1.1 1.7-.4.29-3.9.39-4.6-.11zM86.44 15.09v8.79c0 .9.4 1.2 1.3 1.3.1 0 .2.1.3.1-.4.4-3.8.5-4.4.1 0 0 0-.1.1-.1 1.4-.3 1.5-.4 1.5-1.9v-9.49c0-.8-.1-1.5-.1-2.5.3.3.6.4.8.6 3.5 3.3 6.99 6.6 10.49 9.89.1.1.3.2.4.3h.1s0-.1-.1-.1v-8.59c0-.8-.3-1.2-1.1-1.3-.1 0-.3-.1-.5-.1.5-.4 3.8-.4 4.4-.1v.1c-1.5.4-1.5.4-1.5 2v9.79c0 .6.1 1.2.2 2-.4-.3-.6-.4-.8-.6-3.4-3.3-6.89-6.5-10.29-9.79-.3-.1-.5-.3-.8-.4v-.1.1zm103.72 7.29v-8.2c0-1.7 0-1.7-1.6-2.2.3-.4 3.6-.4 4.5 0-.3.1-.4.1-.6.1-.8.1-1.2.5-1.2 1.3.1 4 .1 7.89.2 11.89 0 .1-.1.3-.1.5l-11.69-11.09c0 .3-.1.4-.1.6v7.59c0 1.6.1 1.8 1.6 2.1-.3.4-3.7.4-4.3.1 0 0 0-.1.1-.1 1.4-.4 1.5-.4 1.5-2v-9.39c0-.7-.1-1.5-.1-2.2.1 0 .1-.1.2-.1 3.8 3.81 7.59 7.41 11.59 11.1zm63.85-4.09v-4.9c0-.7-.5-1.1-1.1-1.2-.1 0-.3-.1-.5-.1.5-.4 4.3-.4 4.8 0-.3.1-.5.1-.7.2-.6.2-.9.5-.9 1.1v10.49c0 .6.4 1 1 1.2.2.1.4.1.6.1-.5.4-4.3.4-4.8 0 .2 0 .3-.1.4-.1.8-.2 1.2-.5 1.2-1.4v-4.1c0-.2-.3-.5-.4-.5h-7.69v4.5c0 1.1.2 1.3 1.3 1.5.1 0 .2.1.3.1-.4.4-4.2.5-4.8 0 .2-.1.3-.1.5-.1.8-.2 1.1-.6 1.1-1.4v-9.99c0-1-.2-1.3-1.3-1.5-.1 0-.2-.1-.3-.1.4-.4 4.2-.4 4.9 0-1.9 0-1.7 1.3-1.7 2.5v3.7h8.09zm-231.53 1.1c1.2 1.4 2.3 2.8 3.5 4.3.6.8 1.4 1.4 2.4 1.5.1 0 .1.1.3.2-.3.1-.4.2-.6.2-1.8 0-3.4-.5-4.5-2.1-.5-.6-.9-1.3-1.4-1.9-.8-1.2-1.5-2.4-3.1-2.7v-.2c.6 0 1.2-.2 1.8-.1 2.1.1 3.1-1.4 2.9-3.5-.1-1.2-1-2.1-2.5-2.3-.9-.1-1.9 0-3 0v10.39c0 1.6.1 1.8 1.6 2.2-.3.4-4.1.5-4.7.1v-.1c1.4-.4 1.5-.5 1.5-2v-8.79c0-1.8 0-1.8-1.7-2.4.3-.1.4-.2.6-.2 2.1 0 4.2 0 6.3.1 1.6.1 2.9.9 3.4 2.6.5 1.5 0 2.9-1.2 3.9-.4.3-1.1.5-1.6.8zm213.45-3.2c-.1-.2-.2-.4-.2-.5-.7-2-2.1-3-4.2-3.2-1.6-.2-3.1-.1-4.5.9-1.8 1.4-2.3 3.3-2.3 5.4 0 2 .5 3.8 2.2 5.1 2.1 1.7 6.2 1.4 7.99-.6l.3-.6c.1-.7.1-1.4.1-2.1 0-1-.1-1.1-1.1-1.3-.1 0-.2-.1-.3-.1.4-.4 3.7-.4 4.2-.1 0 0 0 .1-.1.1-1.2.3-1.2.3-1.2 1.6v.6c.3 1.3-.5 2.1-1.4 2.8-3.3 2.4-8.29 2.1-10.79-.7-2-2.3-2.2-4.9-1.3-7.69.9-2.6 3-3.9 5.7-4.3 2.1-.3 4.1 0 6 1 .5.2.7.5.7 1 .1.9.2 1.7.4 2.6 0 .09-.1.09-.2.09zm-175.37-3.5h-6.6c-.5 0-.8.3-.9.9 0 .2-.1.4-.1.6h-.2v-2.6c3.4.4 6.8.3 10.39.1-2.9 4.4-5.7 8.59-8.59 12.99h5.8c1.7.1 2.8-.6 3.5-2.1.1-.1.1-.2.2-.4h.2v.4c-.3.9-.6 1.7-1 2.6-.1.2-.3.4-.5.4H52.47c-.1 0-.2-.1-.4-.2 2.89-4.2 5.69-8.39 8.49-12.69zm16.38 4.3c.3 1.2.2 2.2.2 3.3h-.3c-.1-.2-.1-.5-.2-.6-.1-.2-.4-.5-.6-.5h-3.9v5.6c1.6-.1 3.2-.1 4.8-.3.9-.1 1.4-.8 1.8-1.6.1-.2.3-.5.4-.7.1 0 .1 0 .2.1v.4c-.3.8-.6 1.7-1 2.5-.1.2-.4.5-.7.5h-8.19c-.2 0-.4-.1-.5-.3.1 0 .2-.1.4-.1.9-.2 1.2-.5 1.2-1.5V13.8c0-1-.3-1.3-1.3-1.5-.1 0-.2-.1-.3-.2.2 0 .5-.1.7-.1h4.8c1.2 0 2.4-.1 3.7-.2v2.7c-.2-.2-.3-.2-.3-.3-.2-1.2-.4-1.3-1.6-1.3h-4.1v4.9c0 .5.1.8.7.7.7-.1 1.3 0 2 0 .89-.21 1.89-.01 2.09-1.51zm78.95 4.39c.5-.4.9-.7 1.2-1 0 0-.3-.4-.5-.6.1-.2.4-.4.4-.6-.4-2.9 1.6-6.4 5.6-7.29.9-.2 1.8-.2 2.8-.2-2.5.3-4.3 1.5-5.6 3.5-1 1.4-1.2 3.1-.9 4.7.3 2.2 1.4 4 3.6 4.8 2 .8 4 1 6.1.1v.2c-.4.2-.8.4-1.2.5-.8.1-1 .6-.9 1.3 0 .2 0 .3-.1.5-.1-.2-.1-.4-.2-.5-.1-.3-.2-.8-.4-.8-.5 0-1 .1-1.4.2-.1 0-.2.4-.3.6-.1 1.4-.1 2.7-.2 4.1 0 .2-.1.5-.1.7h-.2c-.1-1.5-.1-2.9-.2-4.4 0-.5-.1-1-.6-1.3-.6-.3-.8-.2-1 .5l-.3.6c.1-1.1-.3-1.7-1.2-2.3-.8-.4-1.5-1.2-2-1.9-.71-.91-1.1-1.81-2.4-1.41zm-3.9-4.99c0 .3-.1.8-.1 1.2.1 0 .1.1.2.1.5-.2 1.1-.4 1.6-.6 0 0 0 .1.1.1-.4.4-1 .7-1.3 1.2-.3.3-.4.7-.5 1.1-.3 2.2-1.3 3.9-3.1 5-.9.6-1.5 1.2-1.6 2.3 0 .1-.1.2-.2.4-.2-.5-.3-1-.4-1.4-.8.3-1.1 1-1 2 .1.7.1 1.3.1 2h-.2c-.1-.8-.2-1.6-.2-2.3 0-.4-.1-.8-.2-1.2 0-.2-.3-.3-.4-.4-.1.1-.3.3-.3.4-.1.3-.1.5-.3.8 0-.1-.1-.2-.1-.3.1-.8-.4-1-1.1-1.1-1.5-.2-2.9-.8-4-1.8 3.2 1.6 6.3 1.9 9.19-.4 1.2-1 1.8-2.4 1.9-4 .3-4.3-2.3-7.49-6.3-7.79 1.1-.4 2-.1 2.8.1 2.2.6 3.8 1.9 4.8 4 .21.29.41.39.61.59zm50.66-4.3c-.3.1-.5.1-.7.2-.6.2-1 .5-1 1.2v10.69c0 .4.2.5.6.5h3.1c1.4 0 2.4-.6 3-1.9.1-.2.3-.4.4-.7.1 0 .1.1.2.1-.4 1-.8 2.1-1.2 3.1 0 .1-.3.2-.5.2h-8.49c-.1 0-.2-.1-.4-.3.2-.1.4-.1.6-.2.6-.2 1-.5 1-1.2V13.39c0-.6-.3-1-.9-1.2-.2-.1-.4-.1-.7-.2.5-.3 4.29-.3 4.99.1zm15.29 13.19c-.6.4-4.8.4-5.3.1 0 0 0-.1.1-.1 1.7-.4 1.7-.4 1.7-2.2v-8.99c0-1.3-.2-1.5-1.5-1.8-.1 0-.2-.1-.3-.1.4-.4 4.5-.4 5.4 0-.4.1-.6.1-.8.2-.9.2-1.2.6-1.2 1.5v9.69c0 1.3.3 1.6 1.5 1.8.2-.2.2-.2.4-.1z"/><path class="st0" d="M86.44 15.09v-.1.1c.1-.1 0 0 0 0zm10.49 7.09c0 .1 0 0 0 0-.1 0 0 0 0 0z"/></svg>