<svg version="1.1" id="Layer_1" xmlns="http://www.w3.org/2000/svg" x="0" y="0" width="274" height="31.58" xml:space="preserve"><style>.st0{fill:#b22a2a}</style><path class="st0" d="M.3 9.6h5.3c1.3 0 2.7-.2 4-.2v2.5c-.1 0-.1.1-.2.1 0-.1 0-.2-.1-.3-.3-1.2-.4-1.3-1.6-1.3H3.6v6.7h3.9c.3 0 .5-.5.7-.8.1-.1.1-.4.1-.7.4.5.4 3.1.1 3.7-.1 0-.2-.1-.2-.1-.4-1.2-.4-1.3-1.8-1.3H3.9c-.4 0-.5.1-.5.5v5.1c0 .7.4 1.2 1.1 1.4.2 0 .4.1.6.1v.3H0V25c1.4-.1 1.8-.5 1.8-2V11.4c0-1-.3-1.4-1.3-1.7.1.2 0 0-.2-.1zM274 14.2c-.3 0-.4-.1-.5-.4 0-.7-.4-1.1-1.1-1.1h-3.9v10.7c0 1.4.1 1.5 1.4 1.8.1 0 .1.1.2.1-.3.4-4 .4-4.9 0 .3-.1.5-.2.7-.2.6-.2 1-.5 1-1.1V13c0-.1 0-.1-.1-.2h-3.9c-.6 0-1 .4-1.1 1 0 .2-.1.3-.1.5h-.2v-2.6c3.1.5 6.2.2 9.4.2.8 0 1.7-.1 2.5-.2h.5c.1.8.1 1.6.1 2.5zM.2 25.5h.1l-.1.1v-.1zm32.6-14.9c.1 1 .2 2.1.4 3.1h.3c.2-1.2.3-2.4.5-3.6h.2c0 .7.1 1.4.1 2.1h.3V6.3h.2c.2 1.7.4 3.5.5 5.2h.1c.2-1.4.4-2.7.6-4.1h.2v2c0 .6.1 1.3.2 1.9.7-1 .9-2.1 1-3.3.2-2.6.4-5.2.6-7.9 0 0 .1-.1.3-.1.2 2.8.4 5.7.5 8.6.1-.1.1-.3.2-.5h.1v2.2h.3c.2-1.2.4-2.3.6-3.5h.1c.1 1.1.2 2.1.3 3.2h.2l.3-1.5h.1c0 .3.1.7.1 1v.6c.2.3.5.6.7.9.2-.3.6-.5.7-.8.2-1.1.3-2.2.5-3.3 0-.3.1-.7.2-1 0 .2.1.4.1.6.1 1.4.2 2.8.3 4.1 0 .5.2 1 .3 1.5.1.3.2.4.3.4s.2-.1.2-.2c.1-.2.1-.5.1-.7.2-2.4.5-4.8.7-7.1 0-.1 0-.1.2-.2 0 .6.1 1.3.1 1.9.1 1.2.1 2.4.1 3.7 0 .3.4.6.4.9.2 1 .2 2.2.2 3.4 0 .2 0 .4.1.6h.3c.1-1.6.2-3.3.3-4.9h.2c0 .8.1 1.7.1 2.5.1 2.5.3 5 0 7.5-.3 3.1-2.9 5.4-6 5.9-2.5.4-4.8-.1-6.8-1.8-1.5-1.3-2.3-3-2.4-5 0-1.4.1-2.7.3-4.1.1-1.4.2-2.8.4-4.2 0-.1.1-.1.1-.1zM39.7 25c1.4 0 2.4-.3 3.3-1 2.3-1.7 2.8-4.1 2.4-6.7-.6-3.9-4.9-6-8.4-4.2-2 1-2.9 2.8-3.1 5-.4 3.9 2.3 7 5.8 6.9zm72.3.2c1.9 0 2.1-1.2 2.2-2.6.4-3.5.8-7.1 1.2-10.6.1-.9.2-1.8.5-2.7 2.3 4.4 4.2 8.8 6.4 13.4 2.1-4.6 4.1-9 6.1-13.4h.3c.1.4.2.8.2 1.3.5 4.1 1 8.2 1.5 12.4.2 1.7.3 1.8 2.1 2.3-.3.4-4.4.4-5.1 0 .2-.1.3-.1.5-.1.6-.1.9-.4.8-1-.3-3.5-.6-7-1-10.5 0 0 0-.1-.1-.2-1.8 4.2-3.7 8.2-5.5 12.5-1.9-4.1-3.7-8.1-5.6-12.1h-.1l-.3 3c-.2 2.2-.4 4.5-.6 6.7-.1 1.3-.1 1.3 1.1 1.7-.4.3-3.9.4-4.6-.1zM86.4 15.1v8.8c0 .9.4 1.2 1.3 1.3.1 0 .2.1.3.1-.4.4-3.8.5-4.4.1 0 0 0-.1.1-.1 1.4-.3 1.5-.4 1.5-1.9v-9.5c0-.8-.1-1.5-.1-2.5.3.3.6.4.8.6l10.5 9.9c.1.1.3.2.4.3h.1s0-.1-.1-.1v-8.6c0-.8-.3-1.2-1.1-1.3-.1 0-.3-.1-.5-.1.5-.4 3.8-.4 4.4-.1v.1c-1.5.4-1.5.4-1.5 2v9.8c0 .6.1 1.2.2 2-.4-.3-.6-.4-.8-.6-3.4-3.3-6.9-6.5-10.3-9.8-.3-.1-.5-.3-.8-.4V15v.1zm103.8 7.3v-8.2c0-1.7 0-1.7-1.6-2.2.3-.4 3.6-.4 4.5 0-.3.1-.4.1-.6.1-.8.1-1.2.5-1.2 1.3.1 4 .1 7.9.2 11.9 0 .1-.1.3-.1.5l-11.7-11.1c0 .3-.1.4-.1.6v7.6c0 1.6.1 1.8 1.6 2.1-.3.4-3.7.4-4.3.1 0 0 0-.1.1-.1 1.4-.4 1.5-.4 1.5-2v-9.4c0-.7-.1-1.5-.1-2.2.1 0 .1-.1.2-.1 3.8 3.8 7.6 7.4 11.6 11.1zm63.8-4.1v-4.9c0-.7-.5-1.1-1.1-1.2-.1 0-.3-.1-.5-.1.5-.4 4.3-.4 4.8 0-.3.1-.5.1-.7.2-.6.2-.9.5-.9 1.1v10.5c0 .6.4 1 1 1.2.2.1.4.1.6.1-.5.4-4.3.4-4.8 0 .2 0 .3-.1.4-.1.8-.2 1.2-.5 1.2-1.4v-4.1c0-.2-.3-.5-.4-.5h-7.7v4.5c0 1.1.2 1.3 1.3 1.5.1 0 .2.1.3.1-.4.4-4.2.5-4.8 0 .2-.1.3-.1.5-.1.8-.2 1.1-.6 1.1-1.4v-10c0-1-.2-1.3-1.3-1.5-.1 0-.2-.1-.3-.1.4-.4 4.2-.4 4.9 0-1.9 0-1.7 1.3-1.7 2.5v3.7h8.1zM22.5 19.4c1.2 1.4 2.3 2.8 3.5 4.3.6.8 1.4 1.4 2.4 1.5.1 0 .1.1.3.2-.3.1-.4.2-.6.2-1.8 0-3.4-.5-4.5-2.1-.5-.6-.9-1.3-1.4-1.9-.8-1.2-1.5-2.4-3.1-2.7v-.2c.6 0 1.2-.2 1.8-.1 2.1.1 3.1-1.4 2.9-3.5-.1-1.2-1-2.1-2.5-2.3-.9-.1-1.9 0-3 0v10.4c0 1.6.1 1.8 1.6 2.2-.3.4-4.1.5-4.7.1v-.1c1.4-.4 1.5-.5 1.5-2v-8.8c0-1.8 0-1.8-1.7-2.4.3-.1.4-.2.6-.2 2.1 0 4.2 0 6.3.1 1.6.1 2.9.9 3.4 2.6.5 1.5 0 2.9-1.2 3.9-.4.3-1.1.5-1.6.8zm213.4-3.2c-.1-.2-.2-.4-.2-.5-.7-2-2.1-3-4.2-3.2-1.6-.2-3.1-.1-4.5.9-1.8 1.4-2.3 3.3-2.3 5.4 0 2 .5 3.8 2.2 5.1 2.1 1.7 6.2 1.4 8-.6l.3-.6c.1-.7.1-1.4.1-2.1 0-1-.1-1.1-1.1-1.3-.1 0-.2-.1-.3-.1.4-.4 3.7-.4 4.2-.1 0 0 0 .1-.1.1-1.2.3-1.2.3-1.2 1.6v.6c.3 1.3-.5 2.1-1.4 2.8-3.3 2.4-8.3 2.1-10.8-.7-2-2.3-2.2-4.9-1.3-7.7.9-2.6 3-3.9 5.7-4.3 2.1-.3 4.1 0 6 1 .5.2.7.5.7 1 .1.9.2 1.7.4 2.6 0 .1-.1.1-.2.1zM60.6 12.7H54c-.5 0-.8.3-.9.9 0 .2-.1.4-.1.6h-.2v-2.6c3.4.4 6.8.3 10.4.1-2.9 4.4-5.7 8.6-8.6 13h5.8c1.7.1 2.8-.6 3.5-2.1.1-.1.1-.2.2-.4h.2v.4c-.3.9-.6 1.7-1 2.6-.1.2-.3.4-.5.4H52.5c-.1 0-.2-.1-.4-.2 2.9-4.2 5.7-8.4 8.5-12.7zM76.9 17c.3 1.2.2 2.2.2 3.3h-.3c-.1-.2-.1-.5-.2-.6-.1-.2-.4-.5-.6-.5h-3.9v5.6c1.6-.1 3.2-.1 4.8-.3.9-.1 1.4-.8 1.8-1.6.1-.2.3-.5.4-.7.1 0 .1 0 .2.1v.4c-.3.8-.6 1.7-1 2.5-.1.2-.4.5-.7.5h-8.2c-.2 0-.4-.1-.5-.3.1 0 .2-.1.4-.1.9-.2 1.2-.5 1.2-1.5v-10c0-1-.3-1.3-1.3-1.5-.1 0-.2-.1-.3-.2.2 0 .5-.1.7-.1h4.8c1.2 0 2.4-.1 3.7-.2v2.7c-.2-.2-.3-.2-.3-.3-.2-1.2-.4-1.3-1.6-1.3h-4.1v4.9c0 .5.1.8.7.7.7-.1 1.3 0 2 0 .9-.2 1.9 0 2.1-1.5zm79 4.4c.5-.4.9-.7 1.2-1 0 0-.3-.4-.5-.6.1-.2.4-.4.4-.6-.4-2.9 1.6-6.4 5.6-7.3.9-.2 1.8-.2 2.8-.2-2.5.3-4.3 1.5-5.6 3.5-1 1.4-1.2 3.1-.9 4.7.3 2.2 1.4 4 3.6 4.8 2 .8 4 1 6.1.1v.2c-.4.2-.8.4-1.2.5-.8.1-1 .6-.9 1.3 0 .2 0 .3-.1.5-.1-.2-.1-.4-.2-.5-.1-.3-.2-.8-.4-.8-.5 0-1 .1-1.4.2-.1 0-.2.4-.3.6-.1 1.4-.1 2.7-.2 4.1 0 .2-.1.5-.1.7h-.2c-.1-1.5-.1-2.9-.2-4.4 0-.5-.1-1-.6-1.3-.6-.3-.8-.2-1 .5l-.3.6c.1-1.1-.3-1.7-1.2-2.3-.8-.4-1.5-1.2-2-1.9-.7-.9-1.1-1.8-2.4-1.4zm-3.9-5c0 .3-.1.8-.1 1.2.1 0 .1.1.2.1.5-.2 1.1-.4 1.6-.6 0 0 0 .1.1.1-.4.4-1 .7-1.3 1.2-.3.3-.4.7-.5 1.1-.3 2.2-1.3 3.9-3.1 5-.9.6-1.5 1.2-1.6 2.3 0 .1-.1.2-.2.4-.2-.5-.3-1-.4-1.4-.8.3-1.1 1-1 2 .1.7.1 1.3.1 2h-.2c-.1-.8-.2-1.6-.2-2.3 0-.4-.1-.8-.2-1.2 0-.2-.3-.3-.4-.4-.1.1-.3.3-.3.4-.1.3-.1.5-.3.8 0-.1-.1-.2-.1-.3.1-.8-.4-1-1.1-1.1-1.5-.2-2.9-.8-4-1.8 3.2 1.6 6.3 1.9 9.2-.4 1.2-1 1.8-2.4 1.9-4 .3-4.3-2.3-7.5-6.3-7.8 1.1-.4 2-.1 2.8.1 2.2.6 3.8 1.9 4.8 4 .2.3.4.4.6.6zm50.6-4.3c-.3.1-.5.1-.7.2-.6.2-1 .5-1 1.2v10.7c0 .4.2.5.6.5h3.1c1.4 0 2.4-.6 3-1.9.1-.2.3-.4.4-.7.1 0 .1.1.2.1-.4 1-.8 2.1-1.2 3.1 0 .1-.3.2-.5.2H198c-.1 0-.2-.1-.4-.3.2-.1.4-.1.6-.2.6-.2 1-.5 1-1.2V13.4c0-.6-.3-1-.9-1.2-.2-.1-.4-.1-.7-.2.6-.3 4.3-.3 5 .1zm15.3 13.2c-.6.4-4.8.4-5.3.1 0 0 0-.1.1-.1 1.7-.4 1.7-.4 1.7-2.2v-9c0-1.3-.2-1.5-1.5-1.8-.1 0-.2-.1-.3-.1.4-.4 4.5-.4 5.4 0-.4.1-.6.1-.8.2-.9.2-1.2.6-1.2 1.5v9.7c0 1.3.3 1.6 1.5 1.8.2-.2.2-.2.4-.1z"/><path class="st0" d="M86.4 15.1V15v.1c.1-.1 0 0 0 0zm10.5 7.1c0 .1 0 0 0 0-.1 0 0 0 0 0z"/></svg>