<svg version="1.1" id="Layer_1" xmlns="http://www.w3.org/2000/svg" x="0" y="0" viewBox="0 0 31.58 427" xml:space="preserve"><style>.st0{fill:#ddb15e}</style><path class="st0" d="M0 214.39c1.98-.08 2.7-.77 2.93-2.72.8-6.9 1.61-13.8 2.43-20.7.03-.27.17-.53.54-.84 3.15 6.79 6.29 13.58 9.57 20.64 3.18-7.02 6.27-13.81 9.35-20.6h.28c.09.32.22.63.26.95.74 5.97 1.47 11.95 2.2 17.93.08.66.16 1.32.23 1.98.31 2.85.88 3.36 3.8 3.36v.44h-8.14c-.01-.09-.02-.19-.04-.28.14-.06.27-.16.42-.17 1.01-.11 1.42-.69 1.34-1.67-.25-3.06-.5-6.11-.77-9.17-.18-2.02-.38-4.05-.57-6.07-.03-.35-.08-.69-.37-1.09-2.8 6.32-5.6 12.64-8.44 19.07-2.84-6.16-5.69-12.34-8.54-18.51-.07.01-.14.01-.21.02-.14 1.22-.3 2.43-.41 3.65-.38 4.08-.76 8.17-1.08 12.26-.09 1.16.8 1.53 1.86 1.59-.02.13-.04.25-.05.38H.02c-.02-.16-.02-.3-.02-.45zM22.24 0v4.09c-.15-.35-.25-.5-.28-.67-.23-1.13-.95-1.62-2.06-1.62h-5.89c-.47 0-.89-.01-.89.67.02 3.22.01 6.44.01 9.79 2.09 0 4.13.14 6.12-.09.59-.07 1.06-1.16 1.53-1.71v5.15c-.07-.01-.19-.01-.2-.04-.48-1.89-.68-2.04-2.64-2.04h-4.81v8.15c0 1.78.5 2.38 2.23 2.69.15.03.29.14.47.23-.64.54-6.22.62-7.21.12.09-.12.15-.3.25-.32 1.57-.4 1.88-1.51 1.87-2.96-.04-5.56-.04-11.12 0-16.68.01-1.69.17-3.38-2.29-3.73.09-.11.17-.21.25-.32.33-.02.67-.05 1-.05 2.93 0 5.86.06 8.78-.03C19.66.59 20.84.22 22.02 0h.22zm-9.79 427c.24-.15.46-.36.72-.44.91-.27 1.51-.8 1.51-1.8.01-5.63 0-11.27-.01-16.9 0-.1-.05-.21-.1-.43-1.94 0-3.9-.08-5.84.06-.48.04-.95.77-1.35 1.26-.17.2-.12.58-.4.86v-3.66c5.85.51 11.73.53 17.68 0v3.62l-.2.03c-.05-.25-.11-.5-.15-.76-.14-.84-.63-1.38-1.47-1.4-1.92-.04-3.84-.01-5.92-.01v16.5c0 1.79.22 2.07 1.98 2.66.11.04.15.27.22.41h-6.67zm-6.34-25.44c1.91-.38 1.98-1.76 1.96-3.3-.05-4.52-.04-9.04 0-13.56.01-1.59.07-3.11-2.02-3.57h6.24l.06.18c-.24.08-.54.09-.7.24-.51.48-1.34.99-1.37 1.53-.14 2.57-.06 5.16-.06 7.81h11.44v-2.98c0-1.15-.06-2.3.01-3.44.11-1.62-.23-2.88-2.07-3.34h6.35c.01.08.02.16.04.24-.25.06-.5.11-.74.18-.88.25-1.43.82-1.44 1.74-.02 5.41-.02 10.82 0 16.23.01 1.34 1.05 1.69 2.1 2.07h-6.25c2.04-.39 2.06-1.88 2.01-3.47-.06-1.95-.01-3.91-.01-5.94H10.19v6.29c0 2.12.17 2.37 2.12 3.11-2.07-.02-4.13-.02-6.2-.02zm14.5-120.87h5.55c-.23.21-.29.32-.38.34-1.47.35-1.79.71-1.78 2.18.07 6.07.15 12.15.22 18.22 0 .07-.05.13-.2.5-4.98-5.65-9.87-11.19-14.9-16.89-.04.47-.08.74-.08 1.01v12.23c0 1.91.26 2.26 2 2.9H5.67l-.03-.14c.18-.06.35-.13.54-.17.96-.22 1.47-.8 1.46-1.8-.06-6.15-.12-12.3-.17-18.45 0-.21.07-.42.14-.77 4.98 5.61 9.88 11.14 14.77 16.66l.3-.06v-12.34c-.02-2.35-.08-2.45-2.07-3.42zm3.79 82.03c-.12-.28-.27-.55-.36-.84-.91-2.66-2.73-4.28-5.5-4.76-3.23-.56-6.31-.36-8.79 2.15-3.25 3.29-3.49 10.47-.51 14 2.81 3.32 8.1 3.96 12.17 1.56 1.4-.83 2.3-1.77 2-3.52-.11-.65-.01-1.33-.01-2 .01-1.44-.13-1.59-1.62-1.8-.13-.02-.26-.08-.36-.35h6.35c-.09.12-.13.25-.19.26-1.78.44-1.78.44-1.78 2.24 0 .48-.07.98.01 1.44.28 1.57-.48 2.59-1.65 3.47-4.26 3.21-8.91 3.66-13.74 1.72-4.65-1.87-6.24-6.55-5.87-10.82.27-3.12 1.39-5.89 4.1-7.65 1.3-.84 2.84-1.41 4.35-1.83 3.47-.95 6.78-.18 9.99 1.24.66.29 1.05.68 1.12 1.46.13 1.31.4 2.61.6 3.92-.1.04-.21.07-.31.11zm2.54-134.52c-.07.62-.14 1.24-.22 2.05.66-.13 1.05-.16 1.42-.28.37-.13.7-.34.77-.38-.41.51-1.02 1.2-1.56 1.94-.22.31-.37.72-.41 1.1-.35 3.47-1.94 6.19-4.9 8.03-1.33.83-2.37 1.76-2.3 3.48 0 .12-.13.24-.21.38-.22-.73-.43-1.41-.64-2.09-1.4.53-1.76 1.44-1.51 3.24.12.9.12 1.81.18 2.71l-.29.03-.36-3.52c-.06-.59-.08-1.19-.26-1.75-.08-.25-.5-.39-.76-.57-.16.24-.39.46-.46.72-.1.38-.08.78-.22 1.27.05-1.7-.93-2.02-2.33-2.27-1.58-.28-3.07-1-4.61-1.53.04-.13.09-.26.13-.38.23.07.49.1.7.2 2.87 1.38 5.85 1.23 8.79.4 3.61-1.01 6.11-4.36 6.37-8.26.35-5.29-2.45-9.66-7.38-11.53 1.36-.28 3.72.47 5.58 1.77 1.65 1.15 2.89 2.63 3.69 4.49.12.27.46.44.7.65.01.03.05.07.09.1z"/><path class="st0" d="M19.76 270.72c-.7.59-1.44 1.21-2.13 1.79.11-1.18-.89-.81-1.63-.76-.8.05-1.5.22-1.57 1.31-.13 2.36-.37 4.71-.66 7.08l-.21-6.26c-.03-.86-.09-1.73-.94-2.24-1-.61-1.53-.36-1.76.82-.02.11-.05.22-.1.31-.03.06-.1.1-.24.23-.04-.23-.08-.41-.09-.59-.07-1.06-.54-1.72-1.49-2.36-1.35-.91-2.63-2.07-3.6-3.38-.83-1.12-1.45-2.19-3.18-1.75.45-.85 1.85-.35 1.63-1.54-.06-.32-.37-.6-.52-.84.12-.25.49-.63.46-.97-.77-7.31 5.96-11.59 10.74-11.37-6.72 2.87-9.71 7.61-7.36 14.73 1.52 4.59 5.55 6.25 12.65 5.79zm-7.05 55.04c2.19 0 4.34.12 6.46-.04 1.81-.13 2.96-1.37 3.75-2.95.16-.32.45-.57.86-.68-.54 1.39-1.05 2.8-1.64 4.17-.12.29-.54.64-.82.65-4.48.04-8.95.03-13.51.03.1-.17.13-.32.19-.33 2.01-.43 2.23-.7 2.23-2.72v-13.88c0-2.62-.02-2.66-2.39-3.61h7.12c.01.06.02.13.04.19-.32.08-.64.15-.96.25-.91.28-1.46.89-1.46 1.86 0 5.59.01 11.18.02 16.77.01.07.05.13.11.29zm-.67 5.27h7.92c-3 1.23-3 1.23-3 4.43v12.9c0 2.05.34 2.44 2.42 2.84.15.03.27.17.37.48h-7.56c-.03-.05-.06-.11-.1-.16.23-.12.45-.28.69-.34 1.44-.37 1.9-.94 1.9-2.43v-14.56c0-1.97-.29-2.34-2.2-2.83-.1-.04-.17-.13-.44-.33zm14.78-102.94c.08-.03.16-.05.24-.08-.04.06-.08.12-.12.19-.04-.03-.08-.07-.12-.11zM8.37 62.57l.66 7.23c.09 0 .18 0 .28-.01.3-1.97.59-3.94.89-5.91.13.01.26.02.4.02v5.7l.35.03c.87-1.2 1.18-2.61 1.31-4.06.39-4.22.75-8.45 1.12-12.68.1-.01.2-.01.3-.02.26 4.22.53 8.44.8 12.7.12-.15.26-.32.48-.6v3.19c.13.02.26.04.39.05.64-1.66.6-3.47 1.07-5.3.18 1.68.35 3.27.53 4.86.09.02.17.03.26.05.14-.74.29-1.47.49-2.5.12 1.1.12 1.94.34 2.71.13.45.62.8.95 1.2.39-.38 1.04-.7 1.13-1.14.37-1.84.58-3.71.85-5.58.04-.25.06-.5.2-.76.73 3.14.41 6.46 1.63 9.55 1.17-3.3 1.07-6.78 1.77-10.11.11-.01.22-.01.33-.02l1.08 13.69c.11 0 .21 0 .32.01.81-2.38-.02-4.97.81-7.56.15 2.09.35 3.98.4 5.87.09 2.91.28 5.84.06 8.74-.33 4.28-2.78 7.21-6.74 8.71-5.14 1.94-11.48.79-14.66-3.89-1.08-1.59-1.79-3.32-1.69-5.3.21-4.23.43-8.46.64-12.68.13-.01.26-.01.39-.02.1 1.14.17 2.28.31 3.42.04.34.26.67.4 1 .15-.33.4-.65.45-1 .19-1.42.32-2.86.69-4.29l.27 3.03h.32c.52-2.75.13-5.56.42-8.33zM6.9 80.7c.22 1.16.31 2.35.67 3.46 1.03 3.2 3.2 5.34 6.51 6.02 3.3.68 6.25-.16 8.54-2.77 2.02-2.29 2.48-5.04 2.31-7.97-.27-4.65-4.28-8.46-8.93-8.46-5.14.01-8.94 4.12-9.1 9.72zm12.23-41.07c1.63 2.02 3.17 4 4.79 5.92 1.26 1.49 2.49 3.08 4.75 3.13-2.7.79-5.53-.06-7.29-2.2-1.12-1.37-2.13-2.85-3.16-4.29-1.07-1.49-2.18-2.9-4.12-3.49.21-.05.41-.15.62-.16.81-.03 1.63-.02 2.44-.06 2.57-.11 4.13-1.75 4.17-4.38.04-2.63-1.44-4.31-4.01-4.52-.92-.07-1.85-.13-2.77-.15-.51-.01-1.02.08-1.65.14v15.59c0 2.74 0 2.74 2.6 3.69H8.31c-.01-.05-.02-.1-.04-.15.21-.05.43-.13.64-.16 1.09-.15 1.7-.82 1.7-1.86.03-5.33.02-10.67.01-16 0-1.03-.61-1.63-1.56-1.9-.27-.08-.54-.11-.91-.18.17-.15.24-.28.31-.28 3.44.04 6.9-.12 10.32.19 3.24.3 4.96 2.27 5.16 5.13.19 2.61-1.52 4.87-4.38 5.82-.11.02-.24.09-.43.17zM5.62 165.92c1.98-.87 2.01-.9 2.01-3.1-.02-5.48-.05-10.97-.08-16.45 0-.54-.06-1.07.14-1.7 4.91 5.53 9.82 11.06 14.92 16.82.03-.6.05-.88.05-1.16 0-4 .01-8 0-12 0-1.82-.33-2.26-2.03-2.91h5.64c-.37.21-.48.31-.6.34-1.33.32-1.69.72-1.68 2.04.06 6.07.14 12.14.21 18.22 0 .1-.05.2-.17.67-5.02-5.69-9.89-11.21-14.95-16.96-.03.58-.05.91-.05 1.24 0 3.82.01 7.63-.01 11.45-.01 1.56-.17 3.17 2.24 3.26-.07.09-.14.17-.21.26-1.8-.02-3.61-.02-5.43-.02zm18.56-30.11c-.53 1.38-1.02 2.77-1.61 4.11-.15.35-.64.77-.97.78-4.3.05-8.59.03-12.89.03-.13 0-.26-.06-.66-.15.37-.16.5-.24.64-.27 1.47-.28 1.96-.84 1.97-2.32.01-5.04 0-10.08 0-15.11 0-1.67-.36-2.07-2.08-2.39-.12-.02-.23-.12-.32-.3 4.6-.5 9.25.28 13.86-.67v3.98c-.21-.13-.35-.17-.36-.24-.46-1.95-.64-2.09-2.7-2.09-1.74 0-3.48.02-5.22-.01-.67-.01-.91.22-.9.9.03 2.3.04 4.59 0 6.89-.01.77.3.94.99.92 1.22-.04 2.44-.01 3.67-.01 2.07 0 2.11-.02 2.73-1.9.42.55.51 3.63.14 4.79-.07-.01-.19-.01-.2-.04-.58-1.74-.58-1.74-2.39-1.74-1.3 0-2.59.03-3.89-.01-.74-.03-1.07.16-1.05.98.05 2.26.02 4.52.01 6.78 0 .54.05.95.76.92 1.85-.07 3.7-.06 5.54-.17 1.92-.11 3.2-1.2 4.05-2.87.18-.34.44-.64.66-.96.05.05.14.11.22.17zm-1.66-41.3c-3.87 6.55-7.73 13.08-11.71 19.81h8.25c2.04 0 3.56-.85 4.45-2.73.16-.33.33-.66.51-.98.01-.02.07-.01.33-.04-.29.92-.53 1.76-.81 2.59-.83 2.49-.84 2.49-3.42 2.49H8.05c.28-.79.39-1.47.72-2.02 3.28-5.58 6.6-11.15 9.91-16.72.16-.28.31-.56.57-1.04h-8.32c-1.59 0-1.89.28-2.1 1.89-.04.12-.11.24-.32.34v-3.6c4.6.01 9.2.01 14.01.01z"/></svg>