<svg xmlns="http://www.w3.org/2000/svg" viewBox="0 0 192 108"><path d="M180.43 53.32c-.07.03-.15.05-.23.08-.11-.8-.25-.92-1.04-.92h-2.02v6.16c0 1.04 0 1.04.91 1.44h-2.8c.02-.06.02-.1.03-.11.85-.21.9-.28.9-1.19V52.5c-.85 0-1.68-.03-2.51.02-.17.01-.34.32-.48.51-.06.09-.05.23-.15.35-.14-.51-.09-1.03-.11-1.55 2.18.27 4.32.14 6.46.11.34 0 .69-.06 1.03-.09.01.51.01.99.01 1.47zM41.29 51.06c.05-.3.09-.59.14-.89h.08c.02.26.03.52.07.78.04.28.06.62.42.64.34.02.41-.31.45-.57.13-.81.23-1.62.36-2.51.05.15.08.21.09.29.07.87.12 1.75.2 2.62.03.29.14.58.22.86.02.05.11.11.16.11s.12-.07.14-.13c.04-.12.06-.25.07-.37.15-1.44.29-2.88.44-4.32 0-.03.02-.05.06-.13.07.7.14 1.35.18 1.99.03.43 0 .86 0 1.29 0 .08-.01.21.04.24.31.22.19.52.19.81.01.63.03 1.27.05 1.9 0 .05.06.09.15.23.27-1.03.04-2.02.35-2.95.04.5.11 1 .13 1.5.05 1.21.09 2.43.1 3.64.03 2.33-1.81 4.11-4.26 4.24-1.36.07-2.58-.28-3.59-1.22-.87-.81-1.29-1.82-1.28-2.99 0-.79.09-1.58.16-2.37.06-.78.14-1.56.31-2.36.06.59.13 1.18.19 1.77.06 0 .11.01.17.01.1-.7.19-1.4.29-2.11.03 0 .06 0 .1-.01l.09 1.22c.05 0 .1 0 .16-.01v-3.44h.12c.1.99.2 1.98.29 2.97.02 0 .04.01.06.01.12-.77.24-1.54.36-2.32.06.01.12.01.18.02v2.27c.04 0 .08.01.12.01.36-.59.47-1.24.53-1.91.13-1.59.27-3.17.41-4.76h.13c.11 1.68.21 3.37.33 5.17.07-.1.11-.16.17-.26v1.16l.17.03c.12-.66.25-1.33.37-1.99.01 0 .03-.01.04-.01.06.62.13 1.23.19 1.85h.1zm3.03 5.02c-.04-.31-.05-.62-.12-.92-.3-1.32-1.05-2.29-2.38-2.68-1.3-.38-2.48-.11-3.44.85-.9.91-1.16 2.05-1.03 3.29.24 2.18 2.04 3.55 4.14 3.17 1.67-.31 2.8-1.81 2.83-3.71zm49.55-5.58c.07.56.15 1.13.21 1.69.27 2.22.53 4.44.8 6.66.1.81.28.97 1.09 1.09.05.01.1.04.15.07-.28.19-2.68.2-2.99.02.03-.03.06-.07.09-.07.57-.13.65-.24.59-.81-.14-1.59-.28-3.18-.43-4.78-.04-.46-.09-.91-.22-1.38-1.09 2.44-2.18 4.89-3.3 7.41-1.12-2.42-2.22-4.81-3.32-7.19h-.08c-.06.58-.12 1.15-.17 1.73-.12 1.41-.25 2.82-.36 4.23-.05.58.01.66.6.79.03.01.06.05.15.14h-2.73c.04-.07.04-.1.05-.1.92-.05 1.14-.64 1.22-1.45.26-2.56.59-5.11.89-7.67.01-.12.04-.24.07-.36.05-.01.1-.03.15-.04 1.23 2.65 2.46 5.3 3.73 8.04 1.24-2.73 2.44-5.38 3.65-8.04.05 0 .1.01.16.02zm-18.92 7.83v-4.8c0-1.06 0-1.06-.95-1.36.21-.18 2.2-.21 2.6-.02-.05.04-.09.08-.13.09-.75.14-.83.24-.83 1 .01 2.01.01 4.02.02 6.03 0 .35.05.7.08 1.04-.04.03-.07.06-.11.09-2.31-2.18-4.61-4.37-6.99-6.62v5.13c0 .75.11.88.86 1.03.04.01.08.06.22.16h-2.81c.14-.1.18-.15.22-.16.77-.15.83-.22.83-1v-5.65c0-.48-.05-.95-.02-1.48 2.34 2.1 4.62 4.29 7.01 6.52zm49.23-4.55v5.34c0 .51.22.74.73.81.08.01.15.03.22.15h-2.58c.02-.07.03-.09.03-.09.91-.3.91-.3.91-1.33 0-1.81.01-3.62 0-5.44 0-.46-.05-.92-.08-1.38l.11-.08c2.29 2.16 4.59 4.32 6.96 6.55v-4.87c0-1.01 0-1.02-.94-1.28.19-.19 2.18-.22 2.6-.03-.08.04-.13.08-.19.09-.65.11-.8.27-.8.91.02 2.22.05 4.44.07 6.66 0 .17.02.35.03.52-.04.02-.07.04-.11.06-2.29-2.17-4.6-4.35-6.96-6.59zm44.33 2.08c0-1 .01-1.96-.01-2.92-.01-.42-.2-.56-.9-.77.2-.19 2.43-.22 2.77-.03 0 .01 0 .03-.01.04-.91.35-.91.35-.91 1.36v5.06c0 1.07 0 1.07.92 1.5h-2.86c.1-.08.13-.13.17-.14.69-.15.82-.3.82-.99v-2.54h-4.86c0 .97-.01 1.93.01 2.89.01.34.26.52.56.61.11.03.23.05.34.07 0 .04-.01.07-.01.11h-2.78c.02-.06.03-.11.04-.11.84-.23.87-.28.87-1.17v-5.57c0-.75-.08-.84-.83-1.02-.03-.01-.06-.05-.16-.14h2.85c.04.04.07.08.11.12-1.16.03-1.02.81-1.02 1.52v2.14c1.64-.02 3.24-.02 4.89-.02zm-140 .2c.41-.02.83-.04 1.24-.07.98-.07 1.54-.67 1.56-1.65.02-1.03-.5-1.68-1.48-1.77-.56-.05-1.13-.01-1.75-.01v6.33c0 .77.11.9.85 1.05.03.01.06.05.17.14h-2.95c.1-.08.13-.14.17-.14.7-.14.83-.28.83-.98v-5.73c0-.75-.1-.86-.84-1.01-.03-.01-.06-.05-.18-.14.19-.03.29-.06.4-.06 1.08 0 2.15-.01 3.23 0 .29 0 .59.05.88.11 1.06.25 1.68.97 1.74 1.98.06.99-.58 1.9-1.55 2.25-.12.04-.23.08-.33.11.62.77 1.22 1.53 1.85 2.28.49.58.97 1.19 1.86 1.21-.01.03-.02.07-.04.1-.06.03-.11.08-.17.08-1.04.06-1.98-.16-2.67-1.01-.39-.48-.75-.99-1.11-1.5-.45-.64-.89-1.28-1.74-1.45.02-.04.02-.08.03-.12zm129.29-1.45c-.05-.07-.11-.14-.14-.22-.42-1.44-1.48-2-2.88-2.06-2.34-.11-3.85 1.46-3.71 3.86.03.53.11 1.08.29 1.57.58 1.64 2.21 2.41 4.09 1.98.25-.06.49-.14.72-.23.8-.33 1.41-.79 1.2-1.8-.02-.09 0-.2 0-.3 0-.78 0-.78-.75-.97-.02 0-.03-.04-.08-.13h2.57c-.04.07-.04.11-.06.12-.73.22-.73.22-.73.99 0 .11-.02.23 0 .34.15.74-.23 1.2-.79 1.58-1.72 1.18-3.55 1.34-5.43.46-1.5-.7-2.29-2.37-2.09-4.16.25-2.31 1.77-3.71 4.13-3.8 1.07-.04 2.11.11 3.09.6.26.13.42.28.45.6.05.52.15 1.03.23 1.54-.03.01-.07.02-.11.03zM55.56 58.2c-.23.61-.46 1.23-.71 1.83-.02.06-.16.11-.25.11h-6.16c-.04 0-.07-.03-.19-.08 1.66-2.51 3.31-4.99 5.01-7.56h-3.7c-.6 0-.72.12-.81.72-.01.06-.04.12-.16.16v-1.53c2 .24 4.03.19 6.18.03-1.72 2.6-3.4 5.15-5.13 7.77h1.62c.64 0 1.27-.01 1.91 0 .94.01 1.64-.36 2.04-1.24.05-.1.12-.19.19-.29.06.04.11.06.16.08zm-38.22-7.39c1.84-.26 3.71.08 5.56-.35v1.57c-.07-.02-.12-.02-.12-.03-.27-.83-.27-.83-1.15-.83h-2.28v4.03c.77 0 1.55.03 2.31-.02.17-.01.33-.29.46-.48.06-.08.05-.22.07-.34.04 0 .07.01.11.01v2.19c-.07-.04-.12-.05-.13-.08-.2-.73-.26-.78-1.01-.78h-1.83c-.01.15-.02.29-.02.42v2.51c0 .99.09 1.12 1 1.35-.19.2-2.64.23-3.07-.03 1.22-.01 1.11-.83 1.11-1.59-.01-2.14 0-4.27 0-6.41 0-.76-.12-.91-.89-1.07-.04.01-.08-.04-.12-.07zm42.79 1.7v3.32c.79 0 1.56.02 2.33-.02.14-.01.28-.23.39-.38.06-.09.07-.22.11-.37.22.35.21 1.73-.01 2.03-.04-.14-.03-.28-.1-.37-.12-.15-.28-.37-.44-.37-.74-.04-1.49-.02-2.26-.02v3.33c.99-.07 1.99.15 2.96-.18.5-.17.79-.57 1.02-1.03.06-.12.16-.23.23-.34.04.02.09.05.13.07-.24.62-.48 1.24-.73 1.86-.02.06-.17.09-.25.09-1.68.01-3.37 0-5.05 0-.07 0-.15-.04-.28-.07.09-.07.13-.12.17-.13.71-.13.83-.27.83-.97v-5.52c0-1.02 0-1.02-.92-1.29 0-.01-.01-.03-.01-.04 0-.01 0-.04.01-.04.03-.02.07-.06.11-.06 1.76-.03 3.53-.05 5.3-.07v1.47c-.09-.04-.13-.05-.13-.07-.16-.79-.25-.86-1.07-.86-.77.03-1.53.03-2.34.03zm57.92 7.04c-.4.18-.78.41-1.19.52-.46.12-.57.4-.57.8 0 .08 0 .16-.06.25-.03-.1-.06-.19-.1-.29-.07-.17-.13-.48-.21-.49-.28-.02-.58.04-.86.13-.08.03-.15.22-.16.35-.06.83-.1 1.66-.15 2.49-.01.11-.02.22-.13.34-.04-.82-.08-1.64-.11-2.47-.02-.37 0-.75-.43-.92-.35-.14-.49-.07-.57.28a.64.64 0 0 1-.2.34v-.26c-.02-.41-.17-.69-.56-.95a5.64 5.64 0 0 1-1.45-1.39c-.32-.47-.62-.74-1.21-.61 0-.04-.01-.07-.01-.11.12-.05.26-.09.36-.16.12-.09.27-.21.28-.32.01-.11-.15-.23-.24-.35.32-.08.18-.36.18-.64-.01-1.24.44-2.29 1.38-3.12.98-.86 2.14-1.16 3.43-1.11-1.41.23-2.49.95-3.2 2.17-.71 1.23-.69 2.52-.16 3.84.73 1.82 3.76 2.83 5.88 1.6.02.02.04.05.06.08zm-14.13 3.09l-.15-1.37c-.03-.24-.03-.48-.1-.71-.03-.09-.18-.15-.28-.22-.06.09-.14.17-.17.27-.04.16-.04.32-.14.49-.01-.07-.04-.15-.04-.22-.01-.37-.19-.55-.57-.59-1.08-.12-2-.57-2.77-1.33-.05-.05-.1-.1-.14-.16-.01-.02-.01-.05-.03-.13.19.16.34.3.49.42 1.42 1.18 3.76.99 4.97.24 1.67-1.03 2.18-3.54 1.1-5.36-.2-.34-.43-.67-.71-.95-.66-.65-1.41-1.13-2.45-1.05 1.49-.56 3.68.75 4.58 2.7.09-.02.19-.05.21-.05-.03.28-.06.55-.11.96.46-.17.78-.3 1.22-.46-.38.36-.68.61-.95.91-.1.11-.16.3-.18.46-.13 1.34-.75 2.39-1.89 3.11-.53.34-.95.71-.93 1.39 0 .04-.04.09-.09.17-.09-.3-.16-.56-.23-.82-.52.14-.7.54-.59 1.19.02.12.04.25.05.38.01.25 0 .51 0 .76-.03-.03-.06-.03-.1-.03zm31.06-2.56c.02-.06.02-.08.03-.08.91-.33.91-.33.91-1.34v-5.43c0-.71-.11-.84-.81-.99-.05-.01-.08-.05-.11-.15h2.84c-.02.07-.03.11-.04.12-.86.23-.92.31-.92 1.22v6.28c.94-.04 1.84-.04 2.73-.14.63-.07.99-.55 1.27-1.08.06-.12.17-.23.25-.35.04.02.08.05.12.07-.23.6-.45 1.2-.7 1.79-.03.08-.2.15-.31.15-1.67.01-3.34.01-5.01 0-.09 0-.17-.05-.25-.07zm11.97.02h-3.05c-.01-.03-.01-.07-.02-.1.09-.02.18-.05.27-.06.58-.09.81-.34.81-.93v-5.69c0-.78-.16-.97-.93-1.07a.64.64 0 0 1-.16-.06c.24-.19 2.68-.22 3.17-.02l-.36.08c-.56.09-.78.34-.78.91v5.78c0 .72.16.9.9 1.01.05.01.1.03.15.05v.1zm-27.07-4.71v1.03h-.09a36.3 36.3 0 0 0-.07-1.04c.05.01.11.01.16.01z" fill="#fff"/></svg>